<svg xmlns="http://www.w3.org/2000/svg" viewBox="0 0 5760 2880" width="720" height="360"><style>path{fill:#A07850;fill-opacity:0.10;stroke:#A07850;stroke-opacity:0.62;stroke-width:6.5;stroke-linejoin:round;stroke-linecap:round}</style><path d="M1926.854,2720.648L1922.131,2728.8L1917.466,2736.003L1883.942,2733.81L1848.172,2734.757L1828.127,2729.423L1828.127,2728.8L1819.372,2724.088L1855.372,2724.71L1889.875,2726.281L1901.798,2719.7L1910.266,2714.068ZM332.643,2711.955L301.942,2714.149L280.976,2708.516L271.587,2702.856L270.953,2701.908L260.585,2697.521L270.32,2691.563L300.099,2694.082L316.054,2699.092L328.266,2704.752ZM2157.545,2688.747L2177.244,2695.653L2184.156,2705.375L2186.057,2712.253L2186.691,2720.405L2161.922,2725.442L2135.887,2729.504L2105.819,2733.268L2072.296,2736.409L2034.395,2735.462L2013.371,2730.127L2016.193,2723.546L2050.35,2719.159L2064.117,2713.824L2074.139,2706.945L2081.397,2700.988L2091.074,2695.328L2101.442,2688.747L2109.563,2688.747L2133.41,2685.308ZM940.617,2616.008L961.296,2618.526L980.419,2615.71L971.319,2621.343L956.285,2625.432L934.051,2624.159L918.038,2618.526L921.494,2613.191ZM871.036,2615.71L895.516,2621.965L886.07,2621.343L865.391,2619.772L843.445,2615.385L855.081,2611.945ZM1296.301,2590.931L1313.869,2593.124L1331.38,2591.256L1340.769,2600.328L1328.269,2599.082L1308.858,2599.705L1289.101,2599.082L1267.443,2600.03L1251.142,2596.888L1242.732,2590.308L1252.755,2587.491L1273.088,2589.685ZM1784.754,2575.305L1786.655,2582.508L1783.832,2588.764L1779.455,2594.722L1760.677,2596.916L1742.763,2600.057L1721.796,2599.759L1729.63,2593.476L1710.795,2595.67L1692.939,2597.863L1680.727,2593.151L1679.806,2586.571L1697.374,2580.315L1708.318,2578.419L1726.808,2579.042L1731.531,2570.891L1732.453,2564.96L1732.107,2552.097L1741.208,2544.568L1755.954,2542.05L1764.421,2548.007L1768.165,2553.965L1775.077,2561.196L1780.376,2568.074ZM0,2795.418L0.003,2795.419L0,2795.419L0.922,2795.554L15.034,2786.238L43.892,2791.248L45.735,2790.68L50.228,2789.353L55.642,2787.701L60.308,2786.293L62.669,2785.588L65.031,2785.615L66.701,2785.886L89.857,2792.548L110.132,2785.886L113.761,2784.966L160.763,2782.149L176.027,2785.886L183.515,2787.809L207.65,2793.117L253.097,2797.206L289.097,2802.216L350.845,2805.98L396.926,2801.593L464.952,2804.735L503.487,2809.745L545.765,2805.033L590.291,2800.645L593.747,2793.117L530.732,2792.494L479.006,2788.73L465.528,2782.474L422.615,2779.008L425.438,2771.804L431.371,2765.224L437.361,2759.266L434.193,2752.685L407.582,2748.298L395.37,2742.638L370.602,2737.628L409.482,2738.576L446.462,2736.057L469.617,2741.392L498.13,2736.707L524.453,2730.75L537.298,2725.415L531.653,2718.834L510.975,2714.447L487.474,2709.735L454.584,2708.787L425.783,2706.593L394.737,2705.023L384.369,2699.065L363.69,2694.055L351.191,2688.422L346.179,2670.224L354.013,2671.794L368.413,2676.804L394.737,2675.234L420.139,2673.04L433.272,2679.946L458.673,2678.375L479.986,2674.936L500.031,2670.549L518.175,2665.214L542.309,2663.643L541.676,2657.685L536.089,2651.727L540.754,2646.094L561.433,2643.278L570.822,2648.586L595.302,2645.472L613.792,2641.382L636.659,2641.057L658.259,2639.514L679.917,2635.75L697.14,2632.283L716.551,2628.844L729.108,2629.792L740.052,2631.037L763.899,2628.844L785.211,2631.66L807.157,2631.362L828.123,2629.169L849.724,2630.713L873.57,2632.283L895.804,2631.66L919.017,2631.985L942.806,2632.283L964.752,2631.66L981.053,2626.948L1000.464,2624.457L1020.567,2627.896L1039.633,2625.08L1056.913,2619.447L1067.223,2624.457L1072.868,2630.09L1083.236,2635.425L1099.825,2630.713L1118.949,2636.67L1140.549,2638.566L1159.039,2642.953L1181.618,2642.005L1202.009,2639.189L1226.086,2639.812L1247.744,2642.005L1269.689,2644.822L1278.157,2637.943L1267.789,2632.608L1259.955,2626.948L1239.276,2625.703L1230.176,2619.745L1226.719,2613.787L1221.075,2601.871L1233.344,2604.065L1254.31,2605.013L1274.989,2604.065L1293.824,2606.583L1310.125,2611.295L1316.98,2616.928L1338.637,2617.876L1359.316,2615.683L1381.262,2612.541L1400.961,2610.646L1417.262,2614.41L1438.574,2613.164L1452.341,2600.951L1465.243,2608.154L1483.733,2610.971L1503.778,2609.4L1516.911,2615.683L1537.935,2616.305L1557.347,2618.174L1576.47,2621.64L1589.027,2615.683L1595.248,2610.023L1611.261,2616.305L1633.207,2614.735L1649.508,2618.174L1660.452,2623.509L1681.764,2621.938L1698.353,2618.499L1714.654,2614.41L1734.065,2612.216L1756.645,2610.348L1777.035,2608.154L1792.703,2604.715L1802.092,2599.678L1805.836,2592.799L1803.992,2586.191L1798.981,2579.936L1793.336,2573.653L1788.325,2567.397L1784.235,2561.737L1783.314,2555.482L1784.869,2549.199L1792.357,2543.241L1798.636,2536.66L1801.17,2530.405L1798.002,2523.499L1796.159,2517.216L1803.992,2510.013L1812.748,2505.328L1823.116,2499.37L1834.06,2494.333L1846.905,2489.648L1853.183,2482.742L1861.939,2478.355L1871.961,2474.266L1887.34,2473.345L1897.363,2468.308L1908.653,2465.194L1921.786,2463.298L1933.421,2459.236L1942.464,2454.199L1955.021,2452.33L1964.41,2456.42L1958.477,2461.727L1942.176,2466.44L1935.264,2469.879L1923.398,2467.387L1910.208,2468.958L1899.264,2472.722L1887.628,2476.784L1879.795,2481.497L1877.606,2487.752L1878.585,2493.71L1886.073,2499.045L1875.129,2502.809L1860.095,2504.055L1851.283,2509.39L1841.894,2514.4L1831.871,2521.306L1829.337,2527.263L1834.982,2533.844L1843.449,2538.854L1856.639,2542.618L1868.851,2547.628L1875.417,2553.911L1878.873,2559.869L1883.596,2566.152L1891.085,2571.459L1895.808,2577.417L1897.997,2592.149L1902.662,2598.107L1903.929,2604.39L1908.941,2610.646L1906.752,2619.122L1897.997,2625.703L1888.608,2631.037L1867.295,2633.231L1860.095,2638.864L1850.361,2644.199L1826.226,2650.157L1804.914,2652.675L1784.869,2656.114L1763.211,2659.581L1750.366,2666.161L1724.676,2666.784L1696.51,2666.161L1671.108,2667.407L1644.151,2667.407L1649.162,2673.69L1673.585,2676.506L1691.499,2680.894L1701.521,2686.526L1683.665,2691.536L1656.074,2689.966L1633.207,2694.055L1632.228,2700.636L1631.594,2706.918L1650.429,2712.226L1653.885,2718.184L1674.218,2724.142L1708.087,2726.66L1736.888,2731.047L1759.813,2736.057L1788.959,2741.094L1828.703,2743.586L1867.929,2747.973L1895.174,2752.685L1924.954,2758.02L1940.621,2765.549L1948.455,2771.506L1967.866,2765.846L1994.19,2761.161L2022.068,2756.124L2055.304,2752.062L2083.816,2747.675L2123.618,2747.35L2162.786,2749.544L2195.043,2753.308L2205.411,2746.402L2227.645,2741.717L2268.08,2741.392L2299.761,2737.953L2329.828,2734.487L2363.064,2732.293L2398.43,2729.477L2423.199,2725.415L2411.909,2719.755L2405.054,2714.122L2405.054,2708.164L2374.008,2708.787L2341.118,2711.305L2309.783,2711.305L2305.348,2705.348L2307.594,2693.432L2314.794,2689.966L2337.662,2686.228L2364.619,2682.464L2384.03,2677.752L2403.442,2673.04L2417.899,2666.784L2439.788,2663.968L2461.445,2661.774L2472.39,2660.502L2497.158,2659.879L2520.659,2657.685L2540.416,2654.544L2559.827,2650.78L2577.395,2647.015L2599.629,2642.005L2613.741,2636.67L2628.775,2631.985L2633.498,2625.703L2616.564,2621.938L2622.209,2615.358L2632.865,2610.348L2649.454,2607.206L2667.022,2603.442L2683.323,2598.432L2695.822,2592.149L2703.656,2584.648L2715.291,2580.234L2734.357,2581.181L2742.191,2586.516L2761.314,2587.139L2761.948,2581.181L2770.127,2574.926L2787.349,2576.496L2791.439,2582.454L2810.505,2583.375L2831.241,2580.559L2851.286,2578.69L2869.43,2579.611L2876.342,2586.191L2893.911,2580.884L2910.212,2578.04L2928.356,2575.847L2946.212,2573.653L2962.513,2569.889L2980.369,2567.397L2994.193,2563.931L3003.87,2558.298L3015.793,2562.387L3032.382,2560.194L3044.018,2567.695L3053.061,2573.355L3071.263,2570.214L3078.463,2563.931L3094.764,2559.544L3115.788,2560.492L3122.009,2566.449L3135.199,2560.492L3152.422,2558.623L3171.2,2558L3188.134,2558.298L3205.99,2560.194L3223.271,2561.115L3230.759,2566.449L3241.127,2571.162L3258.637,2568.345L3277.473,2567.695L3295.617,2567.695L3313.473,2567.397L3329.486,2565.204L3346.421,2563.308L3360.533,2558.921L3375.567,2556.105L3391.868,2554.534L3404.079,2550.147L3412.834,2541.373L3421.935,2536.038L3438.524,2538.556L3444.802,2544.189L3458.569,2547.953L3475.216,2546.707L3486.505,2552.34L3498.371,2556.43L3514.672,2552.665L3520.317,2545.76L3534.717,2542.943L3551.364,2537.608L3567.031,2535.415L3585.809,2532.273L3598.366,2528.834L3611.499,2525.07L3624.055,2521.631L3639.089,2523.499L3653.489,2517.866L3663.857,2513.479L3678.891,2513.777L3692.082,2510.013L3695.192,2504.38L3708.671,2499.993L3721.804,2496.851L3737.817,2494.333L3752.562,2493.087L3766.617,2494.035L3781.708,2495.606L3794.553,2499.993L3796.108,2506.871L3810.221,2512.206L3819.897,2516.593L3839.021,2518.489L3849.677,2522.876L3862.867,2527.263L3878.189,2528.211L3891.034,2525.07L3904.858,2518.489L3919.892,2521.928L3935.559,2523.824L3950.593,2525.693L3966.26,2526.938L3982.216,2526.938L3995.406,2543.566L3994.773,2547.628L3992.872,2554.859L3977.55,2558.921L3964.993,2564.879L3967.182,2571.162L3985.038,2570.837L3982.849,2577.119L3974.728,2583.077L3967.182,2589.658L3979.393,2594.668L3997.883,2596.238L4016.373,2593.422L4025.186,2587.139L4030.485,2581.181L4039.298,2576.172L4049.32,2571.459L4053.353,2565.827L4061.82,2558L4071.842,2556.43L4090.044,2555.78L4105.999,2553.911L4122.3,2551.392L4130.134,2545.137L4134.857,2539.179L4145.801,2533.221L4161.469,2529.132L4174.947,2526.018L4183.76,2520.683L4192.804,2517.866L4204.439,2515.348L4220.394,2516.918L4234.794,2515.348L4250.462,2513.479L4268.03,2514.4L4279.608,2510.013L4287.787,2499.37L4293.72,2503.757L4301.265,2511.286L4314.744,2514.4L4330.066,2515.673L4345.445,2513.777L4361.746,2515.023L4376.78,2515.348L4386.802,2513.777L4400.281,2514.725L4412.492,2518.164L4426.892,2515.971L4444.172,2515.971L4458.861,2513.777L4475.507,2515.971L4486.163,2510.636L4494.285,2505.328L4505.287,2500.914L4525.332,2489.025L4535.642,2491.219L4547.853,2495.606L4558.51,2501.239L4578.9,2510.961L4594.568,2511.286L4609.313,2511.286L4626.536,2509.39L4643.758,2507.196L4656.949,2502.809L4667.893,2498.097L4685.749,2497.474L4697.673,2494.035L4710.23,2497.176L4718.351,2502.186L4729.641,2507.196L4747.209,2506.574L4758.153,2510.636L4777.277,2514.725L4797.322,2516.296L4813.911,2515.023L4826.467,2510.013L4837.124,2505.003L4851.524,2503.757L4865.981,2505.951L4882.57,2507.521L4897.604,2505.003L4912.004,2505.003L4926.116,2506.574L4940.862,2508.144L4955.262,2505.328L4972.485,2502.809L4988.786,2502.186L5006.988,2502.186L5021.676,2500.616L5036.134,2499.37L5040.511,2491.517L5041.145,2484.936L5051.167,2489.323L5053.99,2496.526L5059.289,2503.134L5065.913,2508.442L5079.392,2511.286L5097.536,2510.338L5118.56,2510.013L5132.96,2509.065L5153.927,2509.065L5169.018,2508.767L5189.985,2509.39L5207.841,2510.636L5219.131,2515.673L5216.02,2521.631L5226.331,2526.316L5243.553,2530.08L5261.409,2534.169L5282.146,2536.985L5303.746,2539.477L5320.047,2541.995L5338.191,2542.32L5348.559,2536.985L5362.671,2541.373L5374.883,2546.382L5388.995,2550.147L5408.406,2551.717L5426.896,2553.586L5434.73,2559.869L5452.931,2563.633L5465.143,2569.266L5482.999,2571.784L5501.489,2571.459L5518.711,2572.407L5537.835,2572.082L5556.958,2573.355L5574.814,2575.549L5591.403,2579.313L5608.05,2582.454L5619.282,2587.139L5617.439,2593.422L5608.971,2599.055L5601.771,2606.258L5596.126,2611.918L5588.581,2618.499L5567.614,2621.018L5558.225,2626.65L5537.489,2630.09L5530.289,2636.372L5519.345,2642.33L5507.767,2647.34L5501.143,2653.921L5497.111,2659.879L5495.498,2667.082L5495.844,2673.04L5504.945,2679.323L5508.401,2685.281L5515.889,2690.913L5545.668,2693.107L5551.947,2700.013L5523.089,2702.531L5498.666,2705.97L5468.253,2706.593L5454.775,2715.693L5451.952,2723.221L5445.098,2729.179L5436.63,2735.137L5457.943,2740.444L5466.064,2747.052L5479.831,2752.983L5499.3,2758.318L5521.534,2763.355L5545.668,2768.365L5582.302,2773.375L5590.482,2781.201L5636.562,2784.668L5639.615,2785.886L5651.596,2790.625L5695.775,2786.536L5732.409,2791.573L5760,2795.418L5760,2880L2880,2880L0,2880ZM1795.986,2301.598L1816.78,2311.212L1839.186,2315.193L1831.986,2323.208L1816.78,2323.994L1808.658,2318.361L1803.359,2324.833L1789.65,2329.789L1772.312,2327.975L1760.677,2323.181L1743.915,2320.852L1723.755,2311.916L1707.454,2303.331L1685.393,2285.403L1698.583,2288.762L1721.048,2299.458L1742.302,2305.2L1750.539,2297.861L1755.723,2286.893L1770.469,2280.285L1781.874,2282.181L1787.979,2289.601ZM1943.213,2257.591L1956,2264.795L1951.22,2270.401L1929.619,2275.194L1922.419,2269.588L1908.825,2276.792L1900.819,2269.588L1920,2260.002L1933.594,2264.01ZM4004.507,2235.358L3979.912,2236.387L3979.509,2227.884L3981.87,2221.276L3982.965,2217.999L3993.275,2223.036L4008.424,2225.04L4008.942,2228.073ZM5206.343,2092.668L5221.838,2098.193L5230.536,2095.999L5243.035,2092.939L5252.597,2093.995L5253.749,2113.006L5248.276,2118.504L5246.606,2131.394L5241.019,2127.007L5229.902,2138.164L5226.619,2137.298L5216.769,2136.783L5206.919,2123.107L5204.73,2112.546L5195.514,2098.599L5195.918,2091.26ZM5648.312,2094.7L5651.941,2101.307L5663.346,2094.835L5667.954,2101.578L5667.954,2108.321L5662.021,2115.741L5651.538,2127.522L5643.359,2133.967L5649.292,2141.658L5636.965,2141.847L5623.256,2147.886L5618.936,2158.367L5609.893,2174.534L5597.278,2181.683L5589.329,2186.26L5574.584,2185.908L5564.216,2180.654L5546.82,2179.517L5544.171,2173.64L5552.753,2161.779L5572.856,2145.991L5583.166,2142.985L5594.686,2136.892L5608.395,2128.497L5618.015,2120.21L5625.099,2108.267L5631.205,2104.232L5633.567,2095.295L5644.799,2087.902ZM5673.772,2018.494L5685.407,2035.338L5685.695,2024.424L5692.953,2028.785L5695.315,2040.89L5708.217,2046.089L5719.046,2047.389L5728.147,2041.269L5736.269,2043.137L5732.409,2057.328L5727.513,2066.671L5715.302,2066.346L5711.04,2071.193L5712.537,2078.072L5710.176,2081.051L5704.127,2089.69L5696.179,2100.63L5683.852,2107.021L5681.087,2102.824L5674.406,2100.522L5683.622,2087.361L5678.38,2078.532L5661.157,2072.141L5661.618,2066.346L5673.196,2060.767L5675.903,2048.445L5675.154,2038.1L5668.645,2027.376L5669.106,2024.56L5661.445,2017.952L5648.888,2003.789L5642.149,1992.469L5648.14,1991.223L5656.837,2000.106L5669.279,2004.249ZM5553.905,1794.561L5547.857,1798.407L5539.044,1794.074L5527.582,1786.871L5517.271,1778.394L5506.673,1767.129L5504.484,1761.685L5511.338,1761.929L5520.324,1767.372L5527.351,1772.788L5532.478,1777.284L5545.611,1787.195ZM5733.965,1717.435L5739.494,1722.066L5736.845,1730.407L5726.937,1732.6L5718.124,1730.623L5716.569,1723.582L5722.732,1718.085L5729.99,1720.089ZM5760,1704.898L5749.805,1708.823L5739.609,1712.181L5737.536,1706.223L5745.542,1702.947L5750.611,1702.053L5760,1697.072L5760,1704.898ZM0,1697.072L0.003,1697.07L3.283,1696.339L1.325,1704.03L0,1704.897L0,1704.897L0,1704.898L0,1697.072ZM5565.54,1703.461L5560.241,1705.574L5554.884,1698.56L5555.46,1694.281ZM5553.732,1678.953L5556.324,1691.843L5552.004,1689.84L5548.663,1690.706L5546.417,1686.292L5546.071,1674.024ZM3680.907,1656.882L3683.499,1676.137L3687.646,1683.611L3686.034,1691.302L3683.211,1696.014L3677.797,1686.617L3674.744,1691.356L3677.797,1703.217L3676.414,1709.988L3671.979,1713.698L3670.942,1727.238L3664.664,1745.897L3656.773,1767.941L3646.865,1798.272L3640.76,1820.505L3633.56,1839.055L3620.542,1842.847L3606.545,1849.617L3597.329,1845.528L3584.657,1839.814L3580.221,1831.364L3579.185,1817.174L3573.54,1804.419L3572.042,1792.91L3574.922,1781.373L3582.295,1778.611L3582.353,1773.276L3590.014,1761.171L3591.454,1750.961L3587.709,1743.379L3584.714,1733.304L3583.389,1718.572L3588.977,1709.609L3591.166,1699.453L3599.114,1698.857L3608.042,1695.581L3613.975,1692.683L3621.003,1692.493L3630.104,1683.367L3643.294,1673.51L3648.075,1665.467L3645.886,1658.615L3652.683,1660.538L3661.496,1649.435L3661.841,1639.794L3667.141,1632.645L3672.67,1639.523L3676.933,1646.32ZM5176.967,1660.213L5182.727,1672.779L5193.038,1666.739L5198.337,1673.51L5205.998,1679.765L5204.327,1686.861L5207.783,1700.564L5210.203,1708.552L5214.235,1710.502L5218.555,1724.178L5216.999,1732.492L5222.183,1743.324L5239.521,1751.692L5250.869,1759.302L5261.582,1766.262L5259.451,1770.134L5268.609,1780.182L5274.83,1797.486L5281.224,1793.966L5287.733,1800.898L5291.65,1798.434L5294.415,1815.387L5305.762,1825.217L5313.192,1831.337L5325.692,1844.282L5330.185,1857.146L5330.588,1866.272L5329.493,1876.156L5337.097,1889.751L5336.175,1903.914L5333.41,1911.334L5329.09,1925.606L5329.436,1934.787L5326.268,1946.242L5319.183,1960.811L5307.375,1968.665L5301.499,1981.068L5296.143,1988.976L5291.419,2002.787L5285.256,2010.749L5281.224,2022.718L5279.15,2033.74L5279.957,2038.804L5270.798,2044.356L5252.885,2044.952L5238.081,2051.505L5230.766,2057.707L5221.089,2064.586L5207.841,2057.49L5198.049,2054.674L5200.526,2046.333L5191.77,2049.366L5177.773,2060.957L5163.949,2056.624L5154.848,2054.078L5145.69,2052.941L5130.195,2048.31L5119.885,2038.452L5116.89,2026.293L5113.203,2018.223L5105.312,2011.724L5089.932,2009.801L5095.174,2002.029L5091.315,1990.167L5083.481,2001.216L5069.254,2004.168L5077.664,1995.312L5080.083,1986.078L5086.246,1978.251L5084.979,1966.39L5071.961,1980.039L5061.939,1985.509L5055.833,1998.237L5043.334,1991.657L5043.852,1983.18L5033.83,1971.563L5025.362,1965.578L5028.357,1961.868L5007.852,1952.173L4996.62,1951.712L4981.24,1943.94L4952.555,1945.456L4931.877,1951.171L4913.617,1956.506L4898.353,1955.449L4881.418,1963.655L4867.537,1967.365L4864.484,1975.733L4858.551,1982.232L4844.957,1982.639L4834.935,1984.047L4820.765,1981.149L4809.302,1982.882L4798.301,1983.614L4788.797,1992.144L4784.131,1991.44L4776.067,1995.962L4768.406,2001.027L4756.713,2000.404L4745.999,2000.404L4729.007,1990.194L4720.425,1987.134L4720.77,1977.981L4728.719,1975.787L4731.427,1972.158L4730.851,1966.417L4732.809,1955.287L4731.023,1945.809L4722.556,1929.614L4719.964,1920.488L4720.655,1911.389L4714.262,1900.962L4713.858,1896.25L4706.773,1889.886L4704.757,1877.348L4695.657,1864.701L4693.41,1857.877L4700.437,1864.782L4695.081,1849.942L4702.972,1854.573L4707.753,1860.774L4707.465,1852.569L4699.516,1839.976L4698.018,1834.939L4694.274,1830.146L4696.06,1820.911L4699.285,1816.957L4701.474,1808.969L4699.804,1799.599L4706.37,1788.089L4707.58,1800.276L4714.377,1789.281L4727.337,1783.919L4735.171,1777.094L4747.382,1771.218L4754.64,1769.972L4759.075,1771.949L4771.689,1765.991L4781.366,1764.204L4783.785,1760.71L4788.048,1759.248L4796.861,1759.627L4813.68,1754.942L4822.378,1747.847L4826.467,1739.289L4835.856,1731.165L4836.605,1724.774L4837.008,1716.081L4848.183,1702.486L4854.922,1716.298L4861.777,1713.102L4856.074,1705.546L4861.085,1697.774L4868.113,1701.241L4870.071,1689.081L4878.826,1681.201L4882.686,1674.891L4890.75,1672.156L4890.98,1667.687L4898.007,1669.556L4898.295,1665.548L4905.323,1663.246L4913.041,1661.08L4924.849,1668.418L4933.777,1677.897L4943.742,1678.005L4953.938,1679.522L4950.539,1670.72L4958.2,1657.911L4965.458,1653.714L4962.923,1649.733L4969.893,1640.579L4979.57,1634.946L4987.749,1636.842L5001.228,1633.836L5000.94,1625.658L4989.189,1620.377L4997.714,1618.048L5008.312,1622.029L5016.837,1628.582L5030.316,1632.672L5034.866,1631.047L5044.774,1635.976L5054.105,1631.399L5060.153,1632.78L5063.897,1629.72L5071.212,1637.627L5066.95,1646.185L5060.902,1652.657L5055.372,1653.199L5057.215,1659.59L5052.55,1667.579L5046.847,1675.46L5047.999,1679.955L5060.729,1688.81L5073.056,1693.929L5081.292,1699.453L5092.87,1708.932L5097.363,1708.904L5105.715,1712.994L5108.192,1717.95L5123.456,1723.366L5133.997,1717.895L5137.165,1709.311L5140.391,1702.215L5142.349,1693.441L5147.245,1680.713L5144.999,1672.968L5146.151,1668.337L5144.307,1659.157L5146.439,1647.106L5149.491,1643.856L5147.015,1638.521L5150.874,1630.045L5153.869,1621.243L5154.272,1616.694L5160.263,1610.682L5164.756,1618.508L5165.85,1628.555L5169.882,1630.478L5170.516,1637.221L5176.333,1645.346L5177.543,1654.418ZM5473.898,1607.73L5478.391,1613.228L5467.216,1613.119L5461.111,1603.289L5470.672,1607.134ZM4811.434,1603.83L4804.694,1604.128L4783.497,1592.917L4798.416,1589.775L4806.826,1594.65L4812.413,1599.525ZM5453.623,1597.954L5447.402,1598.333L5437.61,1596.708L5434.269,1594.244L5435.248,1587.88L5445.789,1590.398L5451.031,1593.756ZM5466.871,1593.594L5464.451,1596.546L5452.586,1582.68L5449.302,1573.121L5454.717,1573.121L5460.477,1585.93ZM4870.993,1602.233L4857.284,1605.753L4855.383,1603.83L4856.823,1598.387L4863.677,1588.638L4879.518,1582.274L4881.361,1578.51L4895.127,1574.908L4906.302,1574.366L4911.313,1572.362L4917.361,1574.366L4911.486,1578.699L4894.839,1585.686L4881.418,1590.29ZM4766.39,1569.519L4772.15,1573.798L4782.057,1572.498L4786.032,1579.295L4767.542,1582.518L4756.425,1584.657L4747.843,1584.522L4753.315,1575.314L4762.128,1575.179ZM4846.455,1569.519L4844.093,1578.401L4820.074,1582.951L4798.762,1580.974L4798.762,1575.125L4811.434,1571.794L4821.456,1576.587L4832.112,1575.368ZM5438.013,1573.391L5438.704,1576.614L5426.147,1569.817L5417.392,1564.076L5411.401,1558.741L5413.763,1557.116L5421.136,1560.961L5434.269,1568.327ZM5400.63,1557.576L5397.404,1558.47L5390.435,1554.841L5383.868,1548.26L5384.675,1545.579L5394.236,1552.35ZM4617.953,1548.45L4648.654,1550.048L4652.168,1543.44L4681.832,1551.131L4687.65,1561.503L4711.67,1564.428L4731.311,1573.933L4713.052,1580.026L4695.426,1573.581L4680.968,1574.014L4664.379,1572.823L4649.403,1569.952L4630.856,1563.859L4619.105,1562.261L4612.424,1564.265L4583.278,1557.685L4580.513,1550.806L4565.825,1549.614L4576.827,1534.341L4596.238,1535.289L4609.14,1541.544L4615.765,1542.763ZM5035.615,1539.432L5027.378,1550.319L5025.823,1538.268L5028.645,1532.526L5031.986,1527.11L5035.615,1531.795ZM5374.076,1549.127L5369.583,1550.725L5362.671,1544.577L5355.644,1534.422L5352.246,1522.236L5354.434,1520.692L5356.162,1525.431L5361.001,1529.06L5368.777,1539.215L5376.323,1544.632ZM5311.752,1527.652L5303.343,1528.952L5300.808,1533.447L5292.053,1537.347L5283.874,1541.084L5275.349,1541.057L5262.216,1536.426L5253.115,1531.958L5254.44,1527.002L5268.782,1529.331L5277.538,1528.085L5279.957,1520.421L5282.261,1520.015L5283.816,1528.518L5292.917,1527.3L5297.41,1521.829L5306.338,1516.115L5304.61,1506.691L5314.172,1506.393L5317.397,1509.02L5317.109,1517.876ZM4915.979,1495.344L4909.988,1500.652L4898.929,1497.727L4895.819,1490.849L4912.004,1490.063ZM4967.531,1489.495L4973.349,1501.735L4959.87,1495.128L4946.507,1493.801L4937.464,1494.857L4926.404,1494.288L4930.149,1485.487L4949.963,1484.837ZM5330.242,1511.999L5325.231,1516.251L5322.236,1506.827L5318.492,1500.625L5311.234,1495.398L5302.133,1488.574L5290.613,1483.862L5295.048,1479.989L5303.688,1484.485L5309.103,1488.005L5315.842,1491.851L5322.236,1498.567L5328.341,1503.685ZM5026.284,1458.433L5030.777,1484.295L5047.308,1493.882L5060.671,1476.902L5079.046,1467.261L5093.273,1467.234L5106.982,1472.813L5118.848,1478.554L5136.013,1481.614L5163.776,1492.636L5193.326,1501.789L5204.385,1509.968L5213.255,1518.011L5215.732,1527.462L5242.344,1537.347L5246.26,1545.823L5231.515,1547.556L5235.086,1558.199L5249.371,1568.706L5259.739,1585.686L5268.897,1585.145L5268.264,1592.24L5280.648,1594.948L5275.81,1597.954L5292.802,1604.697L5291.074,1609.328L5280.475,1610.438L5276.501,1606.295L5262.792,1604.507L5246.606,1602.097L5234.164,1591.888L5225.063,1583.086L5216.769,1569.086L5195.918,1562.072L5182.381,1566.648L5172.589,1571.929L5174.605,1583.736L5162.048,1589.234L5153.12,1586.553L5136.531,1585.876L5122.304,1572.742L5106.061,1569.546L5102.086,1574.096L5081.811,1574.583L5088.608,1561.557L5098.688,1557.116L5094.541,1539.73L5086.822,1526.298L5055.833,1512.757L5042.642,1511.403L5018.623,1496.617L5013.9,1504.389L5007.736,1505.797L5004.108,1499.948L5004.05,1492.988L4991.839,1485.135L5009.061,1479.366L5020.466,1479.664L5019.141,1475.44L4995.698,1475.413L4989.362,1465.88L4975.077,1462.928L4968.338,1454.994L4989.88,1451.121L4998.06,1445.922L5023.749,1452.475ZM4883.838,1417.27L4870.993,1433.166L4858.954,1436.227L4843.575,1433.112L4816.906,1433.898L4802.909,1436.199L4800.662,1448.305L4814.947,1462.549L4823.587,1455.292L4853.425,1449.848L4852.157,1457.214L4845.188,1454.885L4838.218,1464.282L4824.106,1470.484L4839.255,1490.984L4836.375,1496.482L4850.717,1514.951L4850.602,1525.458L4842.077,1530.143L4835.799,1524.537L4843.517,1511.43L4827.792,1517.632L4823.818,1513.191L4825.891,1507.016L4814.371,1497.646L4815.581,1482.047L4804.867,1486.895L4806.25,1505.554L4806.883,1528.464L4796.746,1530.766L4789.891,1526.081L4794.442,1511.349L4791.965,1495.913L4785.225,1495.805L4780.272,1484.837L4786.896,1474.356L4789.2,1461.656L4797.206,1437.526L4800.547,1430.946L4814.199,1419.057L4826.698,1423.769L4846.858,1425.99L4865.233,1425.313L4881.073,1413.695ZM4939.019,1421.874L4938.155,1435.874L4929.918,1434.304L4927.499,1444.026L4934.065,1452.475L4929.572,1454.398L4923.121,1444.27L4918.398,1423.823L4921.624,1411.041L4926.923,1405.219L4928.075,1413.939L4937.521,1415.347ZM4573.083,1533.637L4555.342,1533.962L4541.863,1520.584L4521.357,1507.531L4514.503,1497.836L4502.407,1484.81L4494.458,1472.813L4482.246,1450.417L4468.192,1437.066L4463.526,1423.309L4457.593,1410.825L4443.193,1400.75L4434.841,1387.048L4422.803,1378.111L4406.098,1360.454L4404.716,1352.33L4414.969,1352.98L4439.737,1356.067L4453.907,1371.693L4466.291,1382.552L4475.104,1389.214L4490.253,1406.41L4506.554,1406.654L4519.975,1417.622L4529.248,1431.027L4541.402,1438.339L4535.009,1451.392L4544.167,1456.943L4549.927,1457.35L4552.634,1468.507L4558.222,1477.444L4569.972,1478.852L4577.748,1488.98L4573.716,1508.885ZM4765.987,1410.77L4783.958,1425.557L4765.008,1427.452L4759.651,1438.366L4760.342,1452.854L4744.963,1463.795L4744.559,1479.746L4738.396,1504.2L4736.035,1498.513L4717.833,1505.716L4711.497,1495.94L4700.092,1495.019L4692.085,1489.901L4673.077,1495.642L4667.259,1487.924L4656.776,1488.791L4643.586,1486.949L4641.109,1465.474L4633.16,1461.033L4625.441,1447.357L4623.253,1433.356L4625.096,1418.516L4634.6,1407.9L4646.35,1413.37L4658.677,1410.391L4661.903,1396.851L4668.757,1393.818L4687.938,1390.351L4699.401,1377.705L4707.292,1367.576L4713.628,1361.591L4727.222,1352.844L4739.548,1341.714L4747.612,1329.203L4754.064,1329.149L4762.3,1337.246L4763.049,1344.206L4773.59,1348.674L4786.896,1353.467L4785.744,1359.75L4775.03,1360.535L4777.91,1368.362L4766.102,1373.805L4757.001,1388.239L4768.752,1403.404ZM4902.039,1305.371L4903.652,1315.987L4904.574,1324.978L4899.159,1339.602L4893.284,1323.299L4885.796,1331.423L4890.923,1343.204L4886.372,1350.705L4867.537,1341.416L4863.044,1329.826L4867.882,1322.243L4857.745,1314.66L4852.733,1321.295L4845.188,1320.672L4833.38,1329.609L4830.73,1324.924L4837.008,1311.438L4847.088,1306.942L4855.786,1300.903L4861.431,1308.161L4873.642,1303.774L4876.234,1296.624L4887.524,1296.218L4886.602,1283.842L4899.563,1291.425L4900.887,1299.468ZM4179.498,1340.847L4165.558,1344.503L4157.955,1331.775L4155.133,1308.784L4162.39,1282.813L4173.45,1291.696L4180.88,1302.961L4188.599,1319.643L4186.179,1336.298ZM1905.024,1278.236L1891.661,1279.997L1888.78,1278.561L1893.446,1274.147L1893.101,1267.837L1902.317,1265.752L1905.657,1266.321ZM4863.735,1275.528L4857.975,1280.809L4852.964,1290.91L4847.952,1295.649L4838.103,1284.573L4841.386,1280.294L4845.418,1275.826L4847.146,1265.887L4855.959,1264.94L4853.425,1275.718L4865.233,1260.282ZM4776.067,1290.937L4754.812,1306.13L4762.646,1294.918L4774.166,1285.061L4783.785,1273.985L4792.195,1258.088L4795.018,1271.141L4784.477,1279.942ZM4830.154,1249.72L4839.716,1254.676L4849.911,1254.649L4849.623,1261.338L4842.192,1268.135L4832.055,1272.956L4831.479,1265.508L4832.631,1257.357ZM4888.042,1245.387L4892.535,1263.261L4880.209,1259.009L4880.497,1264.398L4884.414,1274.255L4876.81,1277.857L4876.177,1266.592L4871.338,1265.752L4868.861,1256.084L4878.25,1257.357L4878.02,1251.291L4868.285,1239.077L4883.607,1239.429ZM4824.451,1230.899L4820.189,1244.71L4813.335,1236.721L4805.155,1224.535L4818.864,1225.131ZM4821.168,1143.942L4831.018,1148.492L4835.914,1144.348L4837.412,1148.41L4834.762,1155.045L4840.234,1166.5L4836.029,1179.797L4826.583,1185.105L4824.106,1197.996L4827.677,1210.751L4836.144,1212.511L4843.229,1210.615L4863.217,1219.498L4861.661,1228.191L4866.903,1232.036L4865.233,1239.402L4852.791,1231.549L4846.858,1223.154L4842.768,1229.03L4832.573,1219.444L4818,1221.8L4810.051,1218.279L4810.858,1211.671L4815.869,1207.582L4811.088,1203.899L4809.014,1209.667L4801.123,1200.46L4798.762,1193.5L4798.128,1178.172L4804.579,1183.453L4806.25,1158.403L4811.434,1143.915ZM1830.546,1148.356L1826.457,1152.391L1814.418,1152.283L1805.029,1152.852L1804.108,1146L1806.412,1143.671L1819.487,1143.752L1827.666,1145.161ZM1649.565,1154.097L1644.727,1156.778L1635.741,1154.206L1626.583,1148.383L1628.541,1144.727L1635.223,1143.617L1638.909,1144.159L1649.68,1145.594L1658.148,1149.439L1660.797,1153.799ZM1718.744,1122.061L1732.625,1124.579L1734.584,1121.844L1747.083,1121.925L1756.587,1126.041L1760.792,1125.635L1763.672,1131.295L1772.427,1130.997L1771.909,1135.764L1779.051,1136.332L1786.885,1142.209L1780.952,1148.708L1773.349,1145.242L1766.034,1145.919L1760.734,1145.161L1757.854,1148.058L1751.749,1149.06L1749.272,1145.161L1743.973,1147.462L1737.579,1158.43L1733.489,1155.885L1732.683,1151.281L1722.027,1148.573L1714.481,1149.683L1704.747,1148.519L1697.259,1151.498L1688.676,1146.515L1690.059,1141.369L1704.804,1143.59L1716.9,1144.863L1722.66,1141.315L1715.345,1134.382L1715.46,1128.262L1705.38,1125.771L1708.951,1121.356ZM4645.429,1141.153L4631.605,1148.844L4618.472,1143.888L4618.011,1130.104L4625.902,1122.873L4643.413,1118.378L4652.571,1118.757L4656.143,1124.877L4649.115,1131.918ZM391.338,1134.653L388.977,1137.334L385.002,1135.059L385.463,1130.591L382.813,1124.742L383.62,1122.981L386.385,1120.354L385.29,1117.213L386.212,1115.724L387.421,1116.022L393.585,1118.73L396.407,1120.111L398.999,1122.25L403.089,1127.856L402.686,1128.75L396.465,1132.162ZM382.756,1109.685L377.341,1110.849L374.634,1107.464L372.791,1106.164L372.618,1105.162L374.173,1103.808L379.876,1105.325L384.081,1107.762ZM371.869,1101.181L371.351,1102.887L362.768,1102.427L363.978,1100.477ZM357.527,1098.852L356.663,1099.773L355.568,1099.556L349.981,1098.988L347.965,1095.386L347.331,1094.736L351.594,1092.515L352.919,1093.544ZM330.455,1088.291L328.554,1089.861L323.197,1086.964L324.003,1085.799L326.48,1084.228L330.167,1084.553ZM1605.155,1075.752L1611.491,1081.602L1626.467,1079.814L1632.112,1083.551L1645.648,1093.463L1655.613,1100.694L1660.913,1100.477L1670.417,1103.727L1669.265,1108.249L1681.073,1108.899L1693.169,1115.453L1691.268,1119.19L1680.612,1121.221L1669.841,1122.006L1658.839,1120.761L1635.914,1122.304L1646.628,1113.395L1640.119,1109.224L1629.808,1108.168L1624.279,1103.537L1620.477,1094.438L1611.434,1095.061L1596.515,1090.755L1591.734,1087.397L1570.883,1084.933L1565.296,1081.818L1571.286,1077.81L1555.561,1076.998L1544.099,1085.312L1537.475,1085.528L1535.171,1089.428L1527.222,1091.188L1520.425,1089.672L1528.834,1084.716L1532.291,1078.948L1539.548,1075.4L1547.727,1072.259L1559.824,1070.742L1563.683,1068.982L1577.507,1070.119L1590.122,1070.309ZM1639.428,1059.856L1635.511,1060.641L1631.479,1051.433L1625.488,1046.803L1628.944,1036.647L1633.783,1037.27L1639.37,1050.567ZM4818.807,1075.346L4811.952,1088.48L4803.542,1074.967L4801.699,1063.105L4811.088,1047.371L4823.933,1035.266L4831.248,1040.032L4828.426,1049.7ZM1634.877,1014.712L1617.424,1017.284L1616.33,1011.354L1623.818,1010.081L1634.416,1010.568ZM1648.01,1014.549L1645.245,1025.923L1642.308,1023.892L1642.538,1015.524L1635.396,1009.187L1635.338,1007.373ZM5034.233,893.606L5036.249,899.103L5027.263,908.771L5020.697,903.653L5012.46,907.363L5008.255,916.733L4997.829,912.183L4997.944,904.574L5006.815,895.041L5015.916,896.883L5022.482,890.167ZM3433.225,869.26L3422.396,876.057L3423.605,879.063L3424.066,880.363L3407.65,886.863L3399.816,884.777L3396.13,878.359L3403.733,877.763L3404.828,877.682L3407.132,873.81L3418.652,874.026ZM3259.213,868.718L3267.969,874.108L3280.41,873.187L3292.334,874.324L3291.931,877.113L3300.628,875.191L3298.612,879.93L3275.572,881.284L3275.745,878.63L3256.218,875.516ZM3128.345,828.314L3122.585,840.906L3124.946,845.862L3121.606,854.068L3109.337,848.056L3101.215,846.322L3078.924,838.198L3081.112,829.966L3099.833,831.428L3116.191,829.695ZM3027.371,780.651L3036.933,791.998L3034.686,813.175L3027.429,812.146L3020.92,817.481L3014.872,813.257L3014.238,793.948L3010.552,784.795L3019.365,785.607ZM5135.61,845.727L5129.619,858.509L5132.384,866.525L5124.032,877.791L5103.584,885.319L5075.475,886.294L5052.665,904.574L5041.951,898.426L5041.26,886.456L5013.439,889.977L4994.488,897.533L4975.768,897.83L4992.012,909.611L4981.298,936.8L4970.987,943.516L4963.211,937.314L4967.186,922.88L4957.048,918.222L4950.539,907.255L4965.688,902.326L4974.04,892.279L4990.168,883.992L5001.861,873.078L5033.714,868.285L5050.822,871.562L5067.583,843.127L5078.24,850.764L5101.741,834.759L5110.842,828.557L5120.864,808.978L5118.157,790.996L5124.896,780.868L5141.888,777.943L5150.644,800.122L5150.125,813.094L5135.379,829.207ZM3032.958,765.567L3027.659,777.916L3020.401,774.666L3016.715,763.888L3019.941,757.957L3030.251,751.837ZM5182.554,733.205L5193.786,736.618L5205.134,729.847L5208.705,747.802L5184.973,752.189L5170.919,768.086L5145.805,757.145L5137.05,774.639L5119.309,774.883L5117.062,758.986L5125.011,746.665L5142.061,745.771L5146.727,723.646L5151.508,711.189L5170.285,727.843ZM1861.363,695.211L1872.998,697.35L1887.801,696.917L1879.91,703.471L1874.035,704.5L1853.702,697.729L1849.727,692.367L1855.775,687.412ZM1891.085,654.319L1883.308,654.617L1862.572,649.579L1847.711,642.024L1853.241,640.697L1874.265,644.705L1890.624,651.394ZM903.868,663.851L895.804,666.072L869.538,658.787L864.7,653.127L850.415,647.521L847.535,642.972L831.061,640.074L824.898,631.381L826.28,627.671L843.042,631.164L852.892,633.575L867.925,635.281L873.34,640.805L881.289,648.388L897.244,654.996ZM1981.863,628.998L1971.265,642.999L1981.69,637.61L1992.462,641.022L1986.817,646.601L2001.044,650.988L2008.417,647.088L2024.372,652.017L2019.419,663.743L2030.593,661.008L2032.667,669.484L2037.62,679.423L2030.881,693.505L2023.681,694.101L2013.14,691.095L2016.596,677.987L2012.161,675.956L1993.614,689.849L1984.052,689.28L1995.342,681.779L1979.962,677.879L1962.797,678.827L1931.751,678.339L1929.274,673.6L1939.239,667.967L1932.269,663.634L1945.747,653.994L1962.279,628.51L1972.186,619.411L1986.068,613.887L1993.498,614.591L1990.388,618.924ZM756.641,575.351L772.021,574.078L767.182,592.249L781.121,605.113L774.728,605.085L765.108,597.774L759.176,590.408L751.112,585.425L748.174,578.384L749.095,573.292ZM5178.349,628.05L5194.478,656.377L5170.804,651.096L5160.954,674.223L5176.564,690.607L5176.103,701.791L5163.949,692.151L5153.466,704.527L5150.528,691.095L5152.314,675.523L5150.471,658.245L5154.157,646.167L5154.906,624.773L5145.517,609.039L5146.899,587.158L5161.703,579.819L5155.367,572.399L5162.452,570.151L5166.656,580.74L5172.186,596.149L5171.783,611.883ZM2771.394,603.84L2742.997,613.291L2720.36,610.881L2733.32,594.172L2724.968,577.896L2746.741,565.358L2758.837,557.883L2772.258,557.233L2789.423,567.118L2780.841,578.113L2783.49,589.541ZM3083.013,550.247L3073.452,563.191L3056.69,554.173L3054.443,547.511L3077.944,542.231ZM431.889,526.145L415.934,532.238L407.754,528.121L405.278,520.62L419.793,514.933L428.318,512.496L438.974,513.579L445.713,518.535ZM2831.932,501.853L2814.825,519.158L2831.126,516.964L2848.636,517.045L2844.489,530.071L2830.089,544.424L2846.62,545.453L2862.173,566.008L2873.117,568.58L2882.966,586.806L2887.517,593.116L2906.928,596.176L2904.97,606.412L2896.791,611.097L2903.184,619.357L2888.784,627.752L2867.414,627.59L2840.169,632.004L2832.681,628.863L2822.14,636.337L2807.337,634.522L2796.105,640.643L2787.58,637.447L2811.023,620.63L2825.366,617.191L2800.252,614.51L2795.702,608.146L2812.463,603.19L2803.708,594.551L2806.703,584.071L2830.55,585.533L2832.854,576.244L2821.91,566.17L2802.498,563.354L2798.697,559.021L2804.514,551.871L2799.215,547.457L2790.633,555.013L2789.653,539.604L2781.589,531.452L2787.407,514.906L2799.849,501.907L2812.636,503.18ZM230.748,481.434L220.898,483.925L210.415,480.946L200.738,476.586L216.521,473.851L229.193,475.314ZM1611.722,445.47L1605.501,453.866L1598.416,452.511L1594.211,447.745L1594.96,446.635L1601.123,441.842L1607.69,442.194ZM1569.616,436.615L1550.896,445.443L1539.606,445.091L1536.092,440.758L1548.015,433.365L1569.961,433.528ZM132.309,419.473L142.158,422.533L152.123,420.881L165.083,425.106L180.981,427.245L179.656,428.978L167.502,432.363L155.349,428.897L149.243,425.999L135.131,426.92L131.329,425.512ZM1517.43,389.494L1520.367,396.508L1528.604,394.044L1537.878,398.241L1555.388,403.739L1573.705,408.722L1575.145,416.331L1586.896,415.086L1598.358,420.393L1584.131,425.431L1559.248,421.585L1550.262,414.382L1534.422,422.885L1511.612,431.172L1506.14,421.802L1484.424,423.345L1498.364,415.438L1500.38,402.845L1505.852,388.167ZM2647.841,376.712L2644.154,387.057L2662.241,397.97L2641.447,410.184L2595.309,421.152L2581.485,424.049L2560.461,421.693L2515.82,416.629L2531.545,409.561L2496.697,401.735L2525.036,398.647L2524.345,393.935L2490.764,390.225L2501.593,379.799L2525.843,377.443L2550.784,388.275L2575.091,379.583L2595.194,384.105L2621.287,375.575ZM1666.154,365.609L1648.183,366.421L1644.208,358.595L1651.005,349.631L1665.693,347.41L1678.193,351.825L1678.366,358.676L1676.522,360.897ZM3665.758,779.487L3673.88,790.834L3681.368,791.592L3686.264,795.898L3673.131,797.171L3670.309,809.601L3667.601,815.206L3661.726,818.944L3662.129,826.878L3667.198,838.686L3682.347,842.017L3693.464,850.033L3716.216,852.795L3741.215,848.57L3742.77,844.806L3739.775,833.513L3742.079,816.777L3729.637,811.361L3733.727,800.393L3723.128,799.472L3726.642,785.986L3741.733,789.913L3755.788,784.795L3744.153,775.181L3739.545,766.027L3726.642,770.117L3725.029,781.843L3720.018,771.471L3719.154,767.571L3723.071,760.909L3720.018,755.331L3701.471,749.86L3694.271,735.507L3685.4,731.445L3684.882,726.246L3700.434,727.762L3701.067,716.063L3714.661,713.463L3728.658,715.847L3731.538,700.248L3728.658,690.363L3712.645,691.122L3699.051,687.222L3680.562,694.263L3665.643,697.621L3658.328,707.099L3642.833,709.726L3626.935,726.246L3641.451,741.438L3639.896,752.216L3657.349,771.065ZM5760,400.328L5759.885,400.408L5739.321,407.449L5718.585,406.257L5732.985,414.788L5742.547,427.976L5749.92,432.282L5751.763,438.89L5747.673,443.141L5717.836,439.648L5673.081,451.699L5658.853,453.568L5634.373,464.806L5611.16,474.61L5605.285,481.894L5582.417,470.818L5540.715,483.384L5533.457,477.426L5518.02,484.304L5496.65,482.111L5491.466,492.618L5472.285,508.109L5472.861,514.581L5491.063,518.156L5488.932,541.445L5474.071,542.041L5467.216,555.419L5473.898,562.325L5445.904,570.476L5440.374,588.756L5416.47,592.655L5411.689,608.904L5388.649,623.825L5382.716,612.804L5375.862,589.46L5366.934,553.902L5374.652,531.723L5388.131,522.164L5388.995,514.689L5413.821,511.115L5442.39,490.966L5469.981,474.501L5498.724,461.746L5511.569,439.188L5492.157,440.542L5482.538,453.73L5441.93,471.279L5428.854,451.618L5387.555,457.061L5347.465,483.871L5360.713,493.674L5325,497.845L5300.232,499.497L5301.384,487.933L5276.558,485.496L5256.744,493.377L5207.783,490.614L5155.194,495.354L5103.353,526.578L5042.009,564.329L5067.238,566.333L5075.072,576.353L5090.624,579.927L5100.877,571.911L5118.445,572.967L5141.543,590.57L5142.061,604.165L5129.562,620.17L5128.237,639.262L5120.979,664.853L5096.902,688.007L5091.488,699.083L5069.772,717.715L5048.23,736.184L5037.919,745.636L5016.607,755.006L5006.527,755.222L4996.447,747.45L4974.962,759.149L4972.485,764.484L4966.379,763.509L4959.467,768.952L4954.686,774.395L4955.262,785.878L4947.025,789.398L4944.145,792.242L4938.155,796.954L4927.499,799.581L4920.529,803.887L4920.011,810.819L4918.168,812.58L4924.561,815.179L4933.605,822.193L4947.429,841.069L4951.346,851.441L4951.518,869.883L4945.47,878.684L4930.955,881.744L4918.168,888.379L4903.767,889.76L4901.982,881.04L4904.977,869.043L4897.892,852.389L4909.758,849.708L4898.814,836.005L4891.038,832.944L4889.079,835.978L4884.414,837.305L4883.838,834.271L4879.69,832.809L4875.37,830.263L4879.806,823.222L4883.55,821.354L4882.11,818.429L4886.199,809.79L4885.162,807.163L4875.774,805.43L4868.228,801.151L4845.879,805.782L4834.128,813.284L4816.848,817.644L4825.373,810.224L4822.032,803.995L4834.704,793.244L4826.237,784.849L4812.298,790.509L4794.211,801.639L4784.361,811.957L4768.694,812.742L4760.515,820.189L4768.982,831.022L4782.057,833.649L4782.576,840.825L4795.248,845.483L4813.162,834.082L4827.389,840.31L4837.7,840.717L4840.349,849.112L4817.655,853.58L4810.167,862.219L4794.614,870.235L4786.435,881.446L4803.658,890.221L4809.936,905.982L4819.671,920.633L4830.557,932.927L4830.269,944.816L4820.247,949.176L4824.048,957.706L4833.495,962.689L4831.018,975.715L4826.928,988.389L4818,989.824L4806.307,1007.156L4793.347,1028.144L4778.486,1047.236L4756.483,1061.995L4734.249,1075.481L4716.22,1077.323L4706.428,1084.418L4700.898,1079.219L4691.855,1087.18L4669.506,1095.196L4652.571,1097.634L4647.099,1114.532L4638.229,1115.48L4634.024,1103.862L4637.826,1097.688L4616.341,1092.542L4608.795,1095.169L4587.425,1108.845L4574.119,1123.956L4570.606,1135.059L4582.817,1151.931L4597.793,1172.837L4612.309,1182.722L4622.043,1195.585L4629.358,1225.185L4627.227,1253.322L4613.864,1263.856L4595.547,1274.174L4582.471,1287.498L4562.542,1302.393L4556.724,1292.156L4561.217,1281.296L4549.351,1272.224L4535.93,1269.868L4529.479,1261.554L4521.357,1245.008L4507.015,1237.669L4493.306,1237.967L4495.667,1225.401L4481.555,1225.483L4480.288,1243.085L4471.648,1266.456L4466.464,1280.592L4467.558,1292.183L4477.984,1292.67L4484.493,1307.267L4487.373,1321.133L4496.301,1330.286L4505.978,1332.154L4514.272,1340.441L4517.959,1341.958L4527.405,1351.599L4534.087,1362.323L4535.009,1373.101L4533.338,1380.386L4534.893,1385.883L4536.045,1395.334L4541.69,1399.749L4547.969,1413.912L4547.681,1419.301L4536.333,1420.384L4521.184,1408.523L4502.234,1395.822L4500.391,1387.67L4491.117,1376.973L4488.928,1363.731L4483.168,1355.011L4484.896,1343.339L4481.382,1336.569L4475.046,1330.421L4472.339,1322.514L4463.814,1313.469L4456.038,1305.886L4453.446,1315.283L4450.393,1306.401L4452.121,1296.408L4456.845,1281.08L4455.289,1269.191L4460.243,1256.951L4454.829,1247.472L4456.153,1230.032L4449.644,1221.746L4444.46,1202.599L4441.58,1182.397L4434.611,1169.127L4424.07,1177.17L4405.926,1188.571L4396.94,1187.136L4387.033,1183.399L4392.562,1163.576L4389.221,1148.573L4376.665,1130.131L4378.623,1124.362L4369.234,1122.304L4357.887,1109.278L4353.336,1100.91L4352.415,1092.759L4349.362,1085.068L4342.68,1075.752L4327.934,1075.129L4329.374,1081.71L4324.363,1090.62L4317.566,1087.37L4315.205,1090.295L4310.712,1088.534L4304.491,1087.099L4302.245,1092.949L4291.358,1092.759L4271.601,1096.063L4272.523,1108.114L4263.998,1117.565L4240.958,1128.343L4223.044,1147.165L4211.005,1157.266L4195.108,1167.719L4195.05,1175.085L4187.101,1179.039L4172.701,1184.78L4165.213,1185.62L4160.374,1197.806L4163.715,1218.631L4164.579,1231.901L4157.782,1247.093L4157.725,1274.283L4149.43,1275.068L4142.173,1287.254L4147.011,1292.535L4132.438,1297.058L4127.081,1307.944L4120.63,1312.548L4105.481,1297.599L4098.108,1275.203L4091.945,1259.063L4086.358,1251.507L4077.833,1236.125L4073.858,1216.113L4071.094,1206.12L4056.521,1184.157L4049.896,1153.149L4045.116,1132.676L4045.173,1113.286L4042.063,1098.311L4018.792,1107.87L4007.502,1105.974L3986.651,1086.585L3994.312,1080.789L3989.589,1074.506L3970.811,1060.939L3959.118,1056.877L3954.337,1045.367L3941.953,1033.208L3912.462,1036.214L3886.484,1036.512L3863.962,1038.76L3833.837,1033.912L3816.441,1030.229L3798.355,1028.171L3791.558,1008.537L3783.897,1005.694L3771.571,1008.564L3755.442,1016.31L3735.916,1011.002L3719.73,998.707L3704.351,994.157L3693.637,978.965L3681.829,957.625L3673.246,960.225L3663.051,954.917L3657.118,961.173L3647.614,960.387L3650.955,967.455L3649.515,971.111L3654.641,983.162L3660.92,996.974L3668.811,1000.63L3671.518,1006.235L3682.462,1012.951L3683.384,1019.559L3681.829,1024.894L3683.845,1030.283L3688.453,1034.752L3690.584,1040.005L3692.946,1043.932L3691.909,1032.287L3696.229,1023.892L3700.607,1022.159L3705.445,1027.196L3705.733,1036.539L3702.219,1045.963L3705.272,1052.083L3708.095,1051.298L3708.728,1055.685L3721.228,1053.167L3734.476,1053.573L3744.153,1054.06L3755.097,1043.228L3767.02,1032.964L3777.158,1023.107L3781.766,1017.664L3783.782,1019.045L3782.284,1025.652L3780.153,1028.577L3782.342,1041.197L3789.542,1052.138L3798.47,1057.933L3810.221,1060.045L3819.667,1062.943L3826.867,1072.123L3831.187,1077.431L3836.947,1079.462L3836.89,1083.037L3831.072,1092.569L3828.537,1097.065L3821.798,1102.183L3815.808,1113.124L3808.55,1112.284L3805.209,1116.103L3802.675,1124.227L3804.633,1134.924L3803.136,1136.874L3795.763,1136.82L3785.74,1142.805L3784.185,1150.604L3780.556,1153.989L3770.591,1153.854L3764.313,1157.889L3764.37,1164.361L3756.652,1168.802L3747.839,1167.286L3737.125,1172.675L3729.752,1173.569L3718.175,1177.874L3715.064,1184.997L3714.719,1190.44L3698.763,1197.183L3673.189,1204.657L3658.846,1215.95L3651.819,1216.817L3647.038,1215.896L3637.649,1222.531L3627.454,1225.591L3614.033,1226.431L3610.001,1227.351L3606.487,1231.576L3602.282,1232.74L3599.863,1236.803L3591.914,1236.45L3586.788,1238.617L3575.729,1237.804L3571.581,1228.462L3572.042,1219.714L3569.392,1215.002L3566.282,1203.168L3561.674,1196.587L3564.9,1195.802L3563.229,1188.49L3565.188,1185.403L3564.496,1178.443L3562.423,1171.592L3557.584,1166.798L3556.317,1160.407L3548.08,1154.666L3539.555,1141.261L3535.005,1128.208L3523.946,1117.213L3516.803,1114.586L3506.205,1099.34L3504.361,1088.209L3505.053,1078.731L3495.894,1060.993L3488.406,1054.737L3479.766,1051.433L3474.467,1042.253L3475.331,1038.651L3470.896,1030.337L3466.23,1026.79L3460.009,1014.874L3450.217,1001.984L3442.095,990.989L3434.089,991.07L3436.623,982.269L3437.314,976.69L3439.273,970.299L3438.754,967.97L3434.262,974.415L3430.806,986.493L3426.485,994.834L3422.741,997.624L3417.385,992.451L3410.185,985.329L3398.78,962.391L3397.109,963.827L3403.733,980.725L3413.583,996.811L3425.679,1021.726L3431.554,1030.419L3436.738,1039.464L3451.081,1057.175L3447.913,1059.964L3448.431,1070.363L3467.036,1084.716L3469.859,1087.993L3475.043,1103.7L3471.529,1106.597L3473.833,1123.063L3479.708,1142.182L3485.814,1146.108L3494.569,1152.039L3503.843,1170.535L3508.278,1185.24L3517.034,1193.04L3538.864,1208.151L3547.735,1217.25L3556.432,1226.485L3561.444,1231.982L3569.277,1236.803L3573.079,1241.758L3572.561,1248.393L3563.46,1252.239L3570.314,1256.599L3575.556,1259.55L3578.666,1266.158L3585.866,1272.874L3593.815,1272.928L3608.906,1268.839L3626.302,1266.944L3640.414,1261.961L3648.363,1260.905L3654.065,1257.98L3663.166,1257.438L3668.293,1257.113L3675.666,1254.73L3684.133,1253.132L3691.736,1247.662L3697.784,1247.608L3698.13,1252.022L3696.69,1261.338L3696.747,1269.733L3693.349,1275.528L3688.856,1292.833L3681.138,1310.679L3671.23,1331.125L3657.521,1354.578L3643.87,1372.478L3625.035,1394.305L3609.022,1407.277L3585.117,1423.146L3570.199,1435.333L3552.688,1454.696L3549.002,1463.145L3545.373,1466.936L3534.141,1473.327L3530.224,1479.989L3524.234,1481.181L3521.93,1492.447L3516.803,1498.892L3513.693,1509.535L3507.241,1514.815L3499.869,1534.53L3500.79,1543.602L3511.043,1549.452L3511.504,1553.595L3507.126,1563.263L3508.048,1568.138L3507.011,1575.775L3512.598,1585.795L3519.222,1601.583L3525.04,1605.076L3527.632,1612.253L3526.998,1628.176L3528.957,1642.231L3529.59,1667.227L3532.413,1675.08L3527.632,1686.509L3521.411,1697.612L3511.216,1707.523L3496.585,1713.617L3478.556,1721.389L3460.527,1738.558L3454.364,1741.483L3443.19,1752.857L3436.566,1756.54L3435.241,1767.941L3442.844,1780.073L3445.954,1789.443L3446.185,1794.237L3449.007,1793.451L3448.546,1809.131L3445.954,1816.551L3449.698,1819.313L3447.337,1825.975L3440.655,1831.662L3427.465,1837.051L3408.226,1845.717L3401.199,1851.648L3402.581,1858.364L3406.671,1859.447L3405.288,1867.87L3401.256,1879.514L3399.413,1892.811L3395.266,1900.042L3384.322,1908.112L3381.211,1910.441L3374.415,1918.565L3369.979,1926.771L3360.878,1938.253L3342.792,1954.745L3331.502,1964.359L3319.464,1971.644L3302.702,1977.845L3294.58,1978.685L3292.507,1983.126L3282.772,1980.743L3274.823,1983.803L3257.485,1980.716L3247.808,1982.666L3241.184,1981.826L3224.711,1988.136L3211.002,1990.682L3201.152,1996.721L3193.837,1997.1L3187.097,1991.413L3181.683,1991.115L3174.771,1983.966L3174.022,1986.186L3171.891,1981.88L3172.006,1972.51L3166.822,1961.786L3171.949,1958.862L3171.545,1946.594L3161.062,1931.618L3153.056,1918.051L3152.998,1918.023L3141.535,1897.225L3129.612,1885.147L3123.391,1873.448L3119.82,1857.877L3115.903,1846.286L3110.546,1821.642L3110.143,1802.496L3108.127,1793.776L3101.906,1787.195L3093.612,1773.953L3085.202,1754.78L3081.746,1744.733L3068.728,1729.107L3067.749,1716.839L3066.251,1706.765L3068.44,1692.71L3073.97,1678.059L3074.834,1671.181L3080.018,1656.774L3083.82,1650.193L3092.978,1639.74L3098.162,1632.617L3099.833,1620.756L3098.969,1611.684L3094.188,1605.97L3089.925,1596.275L3086.008,1586.661L3086.872,1583.357L3091.769,1576.993L3086.93,1561.557L3083.647,1550.833L3075.64,1540.705L3077.138,1537.59L3074.892,1532.635L3070.629,1520.611L3057.496,1503.658L3041.08,1487.518L3030.482,1474.302L3020.747,1457.783L3021.265,1452.475L3024.779,1447.357L3028.638,1435.712L3031.864,1423.851L3028.869,1421.413L3034.398,1403.459L3036.702,1390.812L3030.482,1380.25L3023.166,1377.542L3019.941,1370.366L3015.851,1368.064L3016.024,1363.65L2999.377,1369.418L2993.329,1368.551L2987.166,1372.153L2974.379,1371.801L2965.796,1361.781L2960.554,1350.217L2949.207,1339.656L2937.169,1339.873L2923.056,1339.845L2909.866,1341.714L2896.963,1345.126L2871.85,1354.496L2862.979,1359.994L2848.579,1364.625L2834.294,1360.075L2827.036,1360.264L2815.862,1357.123L2805.609,1357.313L2786.658,1360.102L2775.541,1364.706L2759.701,1370.582L2756.591,1370.176L2752.386,1370.312L2735.912,1362.675L2721.397,1350.488L2707.745,1341.741L2696.974,1331.423L2692.654,1330.232L2681.134,1323.786L2672.84,1315.229L2670.017,1309.379L2668.059,1297.545L2661.031,1288.094L2654.811,1281.811L2650.721,1279.753L2646.746,1276.557L2644.903,1269.489L2642.542,1265.969L2637.934,1263.342L2629.351,1256.653L2622.612,1255.597L2618.983,1251.101L2619.041,1248.664L2614.202,1245.279L2613.165,1241.84L2610.516,1229.572L2612.589,1222.477L2605.965,1210.019L2598.016,1204.332L2605.044,1201.299L2612.762,1190.061L2616.564,1181.828L2615.181,1173.216L2619.674,1165.336L2621.633,1150.252L2619.905,1134.464L2617.946,1126.502L2619.559,1118.513L2615.412,1110.903L2607.002,1103.998L2607.693,1097.254L2608.442,1089.834L2614.548,1085.474L2619.789,1077.133L2618.753,1071.717L2624.282,1060.424L2633.21,1050.242L2638.567,1047.669L2642.83,1038.353L2643.175,1029.823L2648.935,1019.938L2659.591,1014.089L2669.787,997.759L2678.081,991.395L2693,989.608L2705.614,978.694L2713.621,974.415L2726.984,961.064L2722.952,941.16L2729.058,927.403L2731.189,918.954L2741.499,908.148L2757.512,900.836L2769.378,894.229L2780.092,877.655L2785.103,867.852L2796.911,867.906L2806.53,874.703L2821.737,873.593L2838.326,877.141L2845.296,877.303L2860.675,868.556L2877.955,865.794L2888.035,859.186L2903.472,854.311L2930.602,851.468L2957.041,850.168L2965.105,852.524L2980.196,846.241L2997.304,846.106L3003.812,849.816L3014.757,848.868L3032.152,842.396L3043.384,844.318L3042.866,852.416L3056.459,846.539L3057.611,849.599L3049.605,857.426L3049.49,864.846L3055.019,868.827L3052.946,882.665L3042.405,890.708L3045.458,899.428L3053.695,899.699L3057.727,907.309L3063.832,909.8L3082.61,915.325L3089.349,913.944L3102.713,916.597L3123.91,923.747L3131.398,937.991L3145.798,941.079L3168.32,947.795L3185.369,955.729L3193.203,951.586L3200.864,944.22L3197.12,931.979L3202.131,924.18L3213.651,916.679L3224.711,914.512L3246.311,917.789L3251.783,924.938L3257.773,924.993L3262.842,927.728L3278.74,929.596L3282.657,934.904L3303.911,934.633L3319.348,938.858L3335.189,943.597L3342.619,946.089L3354.946,940.997L3361.512,936.421L3375.624,935.094L3387.029,937.125L3391.349,945.06L3395.093,939.833L3407.88,943.624L3420.38,944.518L3428.271,940.483L3432.879,935.229L3431.785,934.308L3436.047,926.834L3439.273,914.756L3441.577,910.721L3442.038,910.558L3447.74,897.505L3455.689,886.24L3455.977,885.671L3454.479,873.43L3458.396,866.85L3452.521,859.592L3458.569,853.58L3448.834,854.961L3435.414,851.278L3424.412,860.486L3400.162,862.273L3387.202,853.688L3369.922,853.147L3366.235,859.782L3355.176,861.704L3339.739,853.174L3322.286,853.445L3312.782,837.548L3301.089,828.666L3308.865,816.236L3298.727,808.572L3316.468,793.271L3341.121,792.648L3347.861,780.489L3378.331,782.601L3397.57,772.229L3416.233,767.707L3442.671,767.354L3470.608,778.62L3493.59,784.822L3512.195,782.357L3525.962,783.793L3544.855,775.425L3547.274,768.6L3543.242,757.687L3534.026,751.783L3525.155,749.941L3519.28,745.04L3498.889,731.526L3480.63,725.487L3466.806,716.09L3478.441,713.518L3491.747,700.14L3482.761,693.803L3506.377,687.276L3505.917,683.783L3491.574,686.355L3478.787,687.655L3468.131,692.828L3453.155,693.667L3439.388,699.625L3440.31,709.591L3448.143,713.436L3464.502,712.488L3461.334,718.175L3443.823,720.965L3422.108,730.226L3413.237,726.95L3416.751,719.448L3399.24,714.763L3402.12,711.703L3417.385,706.368L3412.777,702.712L3387.893,698.677L3386.799,692.692L3371.995,694.669L3366.062,703.471L3353.678,715.305L3354.024,719.421L3346.248,722.888L3341.409,721.371L3336.917,740.68L3328.622,747.315L3322.804,758.743L3327.931,767.869L3329.832,774.043L3343.829,779.189L3340.891,783.116L3321.883,784.009L3315.086,788.938L3301.723,797.577L3296.711,790.13L3296.884,786.826L3287.15,786.365L3278.798,784.849L3259.444,789.019L3270.503,798.01L3262.381,800.61L3253.511,800.61L3245.044,792.377L3242.048,795.898L3245.62,805.457L3253.626,812.959L3247.578,816.479L3256.506,823.845L3264.397,828.476L3264.628,837.521L3249.824,833.269L3254.548,841.448L3244.41,843.127L3250.458,857.236L3239.86,857.426L3226.727,850.466L3220.736,837.684L3217.914,827.041L3211.693,819.675L3203.456,810.549L3202.419,805.999L3199.654,804.889L3199.366,801.368L3190.496,795.979L3189.113,788.369L3190.438,777.456L3192.627,772.473L3189.977,769.954L3186.579,768.708L3182.086,763.509L3175.174,760.313L3160.14,754.41L3150.867,748.642L3136.236,743.875L3122.815,732.095L3126.041,730.904L3118.726,724.187L3118.438,718.771L3108.127,716.253L3103.231,723.158L3098.508,717.796L3098.853,712.245L3099.429,712.001L3103.001,710.539L3090.271,708.21L3077.253,713.897L3078.117,721.831L3076.159,726.381L3081.4,734.532L3096.434,742.602L3104.498,755.818L3122.297,768.708L3134.796,768.627L3138.713,772.148L3134.22,775.343L3148.563,781.112L3160.313,785.959L3174.022,794.3L3175.693,797.306L3172.697,803.02L3163.827,795.546L3149.887,792.919L3143.206,803.264L3154.726,809.194L3152.825,817.563L3146.143,818.51L3137.619,832.213L3130.937,833.459L3130.995,828.557L3134.278,819.973L3137.734,816.561L3131.513,807.299L3126.617,799.229L3119.993,797.225L3115.27,790.319L3104.959,787.421L3098.047,780.976L3086.181,779.947L3073.682,772.716L3059.051,762.317L3048.165,753.083L3043.211,737.268L3035.262,735.426L3022.245,730.145L3014.872,732.312L3005.598,739.732L2998.974,740.896L2984.459,749.941L2952.894,745.608L2929.623,750.808L2927.78,760.422L2928.644,769.738L2913.495,780.38L2892.989,783.765L2891.549,789.155L2881.699,798.01L2875.536,811.036L2881.757,820.189L2872.541,827.312L2869.085,837.711L2856.989,840.906L2845.641,853.228L2825.366,853.445L2810.102,853.147L2800.079,858.807L2793.974,864.846L2786.14,863.519L2780.207,858.13L2775.657,848.922L2760.738,846.431L2754.287,850.574L2745.877,848.326L2737.64,850.087L2740.059,837.575L2738.562,827.745L2731.419,826.255L2727.56,820.189L2728.827,809.736L2735.221,803.914L2736.373,797.441L2739.714,787.828L2739.368,781.057L2736.143,775.316L2735.451,769.9L2736.258,758.526L2729.691,751.566L2752.328,740.03L2771.913,742.927L2793.398,742.819L2810.447,745.554L2823.695,744.715L2849.558,745.229L2857.853,735.643L2860.905,703.768L2844.374,686.978L2832.566,678.881L2808.143,672.707L2806.53,661.062L2827.267,657.568L2854.109,661.685L2849.04,643.567L2864.189,650.446L2901.399,637.962L2906.237,624.855L2920.234,621.632L2933.021,618.463L2941.258,614.076L2955.313,590.516L2977.201,583.827L2990.507,584.287L2993.617,580.902L3006.98,580.036L3009.976,583.556L3020.805,575.676L3017.176,569.664L3016.427,560.591L3009.918,551.709L3009.457,535.352L3012.107,531.046L3016.715,526.226L3030.77,525.251L3036.414,520.837L3049.259,516.314L3048.741,524.547L3044.018,529.746L3045.918,534.242L3054.616,536.652L3050.699,542.691L3045.918,540.958L3034.398,552.467L3038.776,560.267L3039.006,566.441L3055.192,570.178L3055.019,575.865L3071.32,572.859L3080.306,568.472L3098.335,574.782L3105.938,579.9L3116.825,575.188L3141.823,567.795L3161.984,562.379L3177.939,565.087L3179.149,568.987L3194.586,569.176L3198.214,562.135L3220.275,556.963L3216.877,543.503L3217.453,531.452L3225.287,521.405L3240.378,515.935L3253.108,527.905L3265.953,527.58L3269.005,515.312L3270.849,505.861L3264.973,507.892L3254.836,502.205L3253.453,492.997L3273.671,488.556L3293.831,486.227L3311.169,488.854L3327.7,488.394L3345.902,479.538L3329.14,471.956L3300.11,473.228L3271.943,479.078L3245.908,482.463L3236.634,473.743L3221.139,468.462L3224.711,452.728L3216.935,438.267L3224.595,428.951L3239.111,418.904L3275.687,401.572L3286.343,398.214L3284.73,391.444L3262.439,383.888L3234.906,388.411L3219.411,399.595L3221.888,409.372L3196.486,422.235L3165.555,436.019L3153.92,458.551L3165.324,469.816L3180.589,478.699L3165.9,496.735L3149.254,500.472L3143.148,527.336L3134.105,542.339L3114.694,540.795L3105.593,553.469L3087.103,554.2L3081.976,539.089L3068.613,520.918L3056.459,498.305L3045.688,488.475L3014.123,506.998L2992.811,510.735L2970.635,502.584L2964.932,485.388L2959.863,448.449L2974.609,438.159L3016.83,424.726L3048.453,408.234L3077.714,385.919L3116.191,355.02L3142.975,342.996L3186.925,322.929L3222.061,315.915L3248.384,316.755L3272.75,303.512L3301.895,304.216L3330.638,301.021L3380.693,312.747L3360.072,317.026L3377.64,327.073L3394.114,321.494L3420.38,331.189L3464.214,334.98L3524.694,353.07L3536.963,360.68L3538,371.323L3520.259,379.745L3494.109,383.997L3422.684,371.837L3410.933,373.868L3437.026,385.594L3439.1,409.372L3459.721,414.246L3472.22,418.389L3474.294,410.644L3464.271,403.522L3474.812,397.7L3513.52,407.665L3526.998,403.766L3516.227,392.04L3553.495,376.387L3568.24,377.308L3583.217,382.886L3592.49,371.892L3579.185,362.359L3587.018,352.799L3575.268,342.861L3620.023,348.006L3629.124,356.97L3608.906,358.947L3609.022,367.829L3621.579,373.327L3646.289,369.86L3650.206,359.651L3683.672,352.014L3739.487,338.284L3751.526,339.069L3735.801,348.791L3755.615,350.443L3767.078,344.973L3797.088,344.54L3820.819,337.905L3839.078,347.546L3857.223,336.957L3840.461,327.668L3848.813,322.388L3896.045,327.235L3918.222,332.245L3976.168,350.525L3986.881,342.157L3970.638,333.68L3970.177,330.295L3950.881,328.725L3956.18,321.142L3947.598,308.658L3947.137,303.539L3976.629,289.051L3987.112,274.508L3999.035,271.367L4041.372,275.592L4044.712,284.474L4029.563,297.446L4039.528,302.564L4044.655,313.749L4041.026,335.657L4058.709,345.461L4051.797,356.157L4020.463,378.878L4038.78,381.234L4045.116,375.466L4062.741,371.377L4067.004,363.442L4080.828,355.833L4071.497,346.733L4078.985,336.172L4061.474,334.845L4057.615,325.962L4070.402,309.876L4049.608,296.85L4078.236,286.072L4074.55,274.671L4082.556,274.319L4090.908,283.201L4084.63,298.638L4101.737,301.562L4094.422,290.026L4121.206,283.716L4154.442,282.876L4183.991,292.003L4169.763,278.679L4168.15,261.618L4196.029,258.395L4234.506,259.099L4269.182,257.014L4256.164,248.646L4274.654,238.139L4293.029,237.705L4324.133,229.771L4366.412,227.631L4371.769,223.244L4413.759,221.755L4426.835,225.357L4462.777,216.853L4492.154,217.124L4496.589,210.218L4511.853,203.394L4549.639,196.84L4577.057,202.013L4555.284,205.967L4591.515,208.404L4595.835,216.312L4610.465,212.439L4657.237,212.629L4693.295,220.455L4706.14,226.44L4702.165,234.754L4684.482,239.493L4642.434,248.375L4630.395,253.115L4650.267,255.362L4673.884,259.397L4688.284,256.364L4696.463,266.628L4703.49,262.485L4729.065,259.966L4780.445,262.593L4784.304,270.067L4851.236,272.45L4852.1,260.237L4886.084,263.026L4911.601,262.945L4937.464,271.394L4944.837,281.631L4935.333,288.32L4955.435,300.912L4980.607,307.412L4996.044,290.622L5021.733,297.825L5048.978,293.519L5079.968,298.448L5091.718,293.953L5117.926,296.2L5106.349,281.333L5127.488,274.4L5201.053,278.784L5272.008,284.799L5285.602,294.305L5327.477,306.518L5392.105,303.485L5423.958,306.139L5437.264,312.747L5435.363,324.446L5455.063,328.995L5476.49,325.719L5504.829,325.312L5535.07,328.454L5565.368,326.666L5593.246,340.911L5613.061,335.793L5600.158,325.556L5607.243,318.434L5658.277,322.929L5691.571,321.954L5737.593,329.591L5760,336.577L5760,400.328ZM0,336.577L0.003,336.578L0,336.578L39.226,348.791L81.159,364.715L79.777,374.654L90.548,378.635L86.862,367.017L130.293,369.4L161.627,384.376L145.729,391.336L119.521,392.988L119.118,408.64L112.724,411.944L97.748,411.484L85.537,405.905L64.282,401.247L60.711,394.287L44.41,391.688L26.266,393.746L17.568,388.14L21.024,382.209L1.843,386.001L9.101,393.529L0,400.327L0,400.328L0,336.577ZM1349.639,334.276L1339.674,339.882L1318.132,335.034L1305.114,336.795L1283.226,329.591L1297.338,324.635L1308.512,317.703L1325.504,322.252L1335.066,325.123L1339.905,328.156ZM5760,301.115L5759.997,306.681L5742.432,307.493L5739.609,302.429L5760,295.741L5760,301.115ZM0,295.741L0.003,295.74L0,295.74L0,301.115L0,295.741ZM0,295.74L2.074,295.09L15.61,295.117L38.765,299.694L37.383,301.887L20.909,305.706L0,306.681ZM1431.259,328.047L1431.202,344.404L1452.571,331.866L1471.695,342.157L1466.914,354.018L1482.408,364.823L1499.113,353.26L1510.748,339.449L1511.67,321.9L1534.364,323.119L1558.038,325.475L1579.523,333.41L1580.502,341.344L1568.579,349.875L1579.869,358.432L1577.795,366.232L1546.46,377.416L1524.226,379.88L1507.695,375.06L1502.914,383.103L1487.477,396.589L1482.812,403.576L1464.264,414.409L1441.397,415.465L1428.725,422.235L1427.688,432.634L1409.083,434.638L1389.499,447.61L1372.161,465.619L1365.94,478.238L1365.076,496.816L1388.577,499.497L1395.777,514.473L1403.265,526.605L1425.614,523.436L1455.394,530.369L1471.349,536.462L1482.812,544.018L1502.857,548.405L1519.791,555.148L1546.23,556.069L1563.625,557.64L1561.033,571.478L1565.987,587.564L1577.565,605.465L1601.411,620.657L1613.738,615.457L1622.378,599.019L1614.026,573.726L1602.736,565.304L1628.368,557.829L1646.455,546.591L1655.325,535.46L1654.058,524.763L1643.172,511.169L1623.703,499.118L1642.596,482.355L1635.626,467.866L1630.269,442.898L1641.444,439.188L1668.861,443.548L1685.335,445.091L1698.583,440.894L1713.444,446.31L1733.144,455.599L1738.04,461.8L1766.552,463.019L1766.091,476.451L1771.391,496.68L1786.021,499.172L1797.599,508.596L1820.754,499.714L1836.076,482.057L1846.674,474.637L1859.116,488.908L1879.968,509.327L1897.651,528.528L1891.2,538.575L1912.512,547.593L1926.912,556.746L1952.372,560.862L1962.682,565.981L1969.018,579.521L1981.46,581.633L1987.911,587.672L1989.063,605.654L1977.428,611.666L1965.965,617.272L1939.584,622.959L1919.482,636.12L1892.409,638.72L1858.195,635.335L1834.175,635.227L1817.644,636.337L1804.223,647.819L1783.832,654.914L1760.734,676.092L1742.302,690.851L1755.896,688.224L1781.586,667.209L1815.167,653.858L1839.129,652.26L1853.241,660.114L1838.15,670.865L1843.218,688.116L1848.46,700.194L1869.254,708.183L1895.693,705.854L1911.706,687.872L1912.8,699.49L1923.168,705.285L1903.353,715.765L1867.929,725.271L1852.031,731.743L1834.175,743.279L1822.021,742.088L1821.388,728.547L1849.209,715.332L1823.577,715.847L1805.778,717.796L1808.543,723.05L1791.493,730.795L1775.019,736.32L1758.142,741.059L1748.984,751.512L1746.968,754.166L1746.795,762.642L1752.094,771.119L1758.718,771.525L1757.048,765.675L1761.829,769.223L1760.562,773.8L1749.733,776.399L1742.072,776.075L1730.264,778.891L1723.294,779.676L1713.963,780.462L1700.657,785.092L1724.158,782.086L1728.881,785.12L1706.475,789.913L1696.279,789.94L1696.74,787.99L1691.902,792.431L1696.625,793.163L1693.169,804.645L1681.476,816.967L1680.324,812.85L1676.81,812.011L1671.569,808.03L1674.852,816.642L1678.654,819.512L1679.114,825.524L1673.988,831.753L1664.945,844.535L1663.505,843.885L1668.458,832.999L1660.279,826.878L1658.378,813.609L1655.325,820.514L1658.724,830.67L1648.644,828.287L1659.185,833.324L1659.876,848.543L1664.426,849.653L1666.097,855.178L1668.343,871.183L1658.205,883.071L1641.616,887.81L1631.133,897.18L1623.127,898.21L1615.005,904.086L1612.759,909.475L1595.19,919.847L1586.147,927.457L1578.601,936.962L1576.125,948.309L1579.005,959.44L1584.304,973.115L1591.446,984.435L1591.504,991.368L1599.107,1009.918L1598.589,1020.697L1597.898,1026.925L1593.923,1036.701L1589.142,1038.705L1581.251,1036.783L1578.717,1029.769L1572.611,1026.086L1564.144,1012.329L1556.713,1000.088L1554.294,993.832L1557.577,983.19L1553.142,974.388L1540.643,961.01L1534.422,958.546L1518.236,965.831L1515.414,965.018L1507.637,957.544L1497.615,953.59L1479.528,955.621L1465.301,953.834L1453.09,954.944L1446.293,957.192L1449.403,961.687L1449.115,968.187L1452.514,971.355L1449.461,973.44L1443.528,971.084L1437.538,974.117L1425.902,973.63L1413.979,965.154L1400.04,967.158L1388.404,963.448L1378.439,964.585L1364.961,968.322L1350.388,980.184L1334.49,987.089L1325.735,994.726L1322.106,1001.93L1321.933,1012.951L1322.74,1020.642L1325.735,1026.086L1325.792,1026.113L1325.735,1026.14L1319.572,1040.114L1316.749,1051.65L1315.597,1073.071L1314.042,1080.898L1316.807,1089.618L1321.76,1097.417L1324.986,1109.82L1335.585,1121.736L1339.329,1130.862L1345.607,1138.742L1362.599,1142.994L1369.166,1149.683L1383.22,1145.215L1395.432,1143.59L1407.412,1140.719L1417.493,1137.984L1427.63,1131.458L1431.49,1122.115L1432.757,1108.683L1435.522,1103.998L1446.35,1099.8L1463.285,1096.09L1477.455,1096.659L1487.189,1095.305L1490.991,1098.69L1490.473,1106.408L1481.89,1115.913L1478.088,1125.662L1481.026,1128.452L1478.607,1135.357L1474.632,1147.842L1470.543,1143.725L1467.202,1143.996L1467.259,1146.352L1470.312,1146.433L1470.024,1150.766L1467.432,1157.699L1468.815,1160.163L1467.144,1165.905L1468.181,1167.421L1466.338,1175.518L1463.17,1179.743L1460.29,1180.258L1457.122,1185.809L1462.306,1188.707L1463.688,1186.324L1468.411,1188.355L1470.082,1188.978L1473.596,1186.161L1478.146,1185.945L1479.644,1187.244L1482.12,1186.459L1489.551,1187.894L1496.924,1187.461L1502.108,1185.701L1503.951,1183.913L1509.077,1184.753L1512.879,1185.836L1517.084,1185.457L1520.252,1184.076L1527.567,1186.297L1530.102,1186.649L1534.998,1189.628L1539.606,1193.202L1545.423,1195.667L1549.628,1200.054L1548.246,1201.597L1547.439,1205.172L1549.11,1211.021L1545.423,1216.492L1543.695,1222.91L1543.177,1229.978L1544.041,1234.094L1544.444,1241.298L1541.967,1242.869L1540.47,1249.72L1541.564,1253.945L1538.339,1258.034L1539.03,1262.34L1541.507,1264.967L1545.539,1273.66L1551.76,1280.105L1559.248,1286.929L1565.008,1292.67L1564.662,1296.056L1571.056,1296.787L1572.553,1295.487L1576.989,1299.414L1584.822,1298.276L1591.677,1294.214L1601.354,1290.991L1606.826,1286.225L1615.639,1287.146L1615.063,1288.717L1623.991,1289.285L1631.133,1292.048L1636.317,1296.841L1642.365,1301.282L1650.602,1301.77L1662.641,1290.612L1669.207,1288.906L1669.38,1283.625L1672.318,1270.085L1681.476,1262.665L1691.556,1262.367L1692.823,1259.036L1705.38,1260.363L1717.937,1252.293L1724.216,1248.718L1731.934,1241L1737.579,1241.975L1741.784,1246.2L1738.673,1251.589L1738.213,1255.353L1728.824,1257.222L1734.065,1264.479L1733.893,1272.847L1726.808,1282.136L1732.856,1294.837L1739.768,1293.808L1743.339,1282.244L1738.385,1276.611L1737.579,1264.506L1757.509,1257.98L1755.32,1250.451L1760.907,1245.414L1766.667,1256.653L1777.899,1256.897L1788.267,1265.833L1788.901,1271.114L1803.244,1271.277L1820.351,1269.625L1829.509,1276.774L1841.778,1278.751L1850.707,1273.768L1850.937,1269.733L1870.752,1268.785L1889.932,1268.541L1876.339,1273.281L1881.811,1280.836L1894.598,1282.028L1906.694,1289.908L1909.286,1302.718L1917.581,1302.365L1923.859,1306.13L1934.4,1312.006L1944.25,1322.432L1944.711,1330.665L1950.759,1331.044L1959.341,1338.871L1965.62,1344.422L1984.801,1347.645L1986.529,1344.747L1999.489,1343.583L2016.654,1347.889L2022.126,1349.649L2033.876,1353.44L2050.811,1366.953L2053.461,1373.507L2058.933,1372.749L2062.907,1381.604L2071.835,1409.579L2080.418,1412.206L2080.821,1423.255L2068.84,1436.443L2073.794,1441.264L2102.075,1443.755L2102.651,1459.814L2114.805,1449.307L2134.908,1455.048L2161.519,1464.824L2169.295,1474.194L2166.703,1483.049L2185.308,1478.121L2216.413,1486.597L2240.317,1485.974L2263.991,1499.217L2284.439,1517.144L2296.765,1521.748L2310.417,1522.398L2316.234,1527.435L2321.649,1547.8L2324.298,1557.495L2317.962,1583.953L2309.783,1594.379L2287.261,1616.64L2277.066,1634.73L2265.2,1648.622L2261.226,1648.92L2256.733,1660.7L2257.885,1690.679L2253.45,1715.323L2251.722,1725.884L2246.653,1732.194L2243.83,1753.588L2227.587,1774.467L2224.88,1790.987L2211.92,1797.92L2208.176,1807.533L2190.78,1807.479L2165.609,1813.626L2154.377,1820.749L2136.463,1825.434L2117.628,1838.162L2104.091,1854.031L2101.73,1865.974L2104.379,1874.802L2101.442,1890.97L2097.813,1898.796L2086.581,1907.597L2068.84,1935.762L2054.785,1948.435L2043.899,1955.937L2036.584,1971.156L2026.043,1980.283L2019.073,1990.357L2001.044,1999.239L1989.236,1996.044L1980.538,1997.75L1965.792,1990.898L1954.906,1991.413L1945.171,1982.557L1944.077,1990.898L1964.41,2004.601L1962.221,2015.65L1972.186,2022.61L1971.38,2030.436L1956,2050.937L1932.269,2059.521L1900.185,2062.852L1882.617,2061.255L1886.016,2070.787L1882.732,2082.757L1885.67,2090.827L1876.051,2096.46L1859.692,2098.68L1844.313,2092.831L1838.092,2097.028L1840.338,2112.925L1851.167,2117.745L1859.923,2112.708L1864.646,2121.022L1849.958,2125.978L1837.113,2135.917L1834.751,2152.03L1830.95,2160.587L1815.858,2160.642L1803.301,2168.82L1798.693,2180.817L1814.476,2192.543L1829.74,2195.766L1824.21,2210.146L1805.317,2219.164L1794.949,2237.904L1780.319,2244.24L1773.81,2251.715L1778.936,2268.342L1789.592,2277.604L1782.853,2276.792L1768.626,2276.683L1760.907,2280.61L1746.507,2286.378L1743.915,2301.327L1737.118,2301.706L1719.089,2296.507L1700.772,2285.349L1680.842,2276.196L1675.831,2266.068L1680.382,2256.698L1672.318,2246.055L1670.244,2218.784L1677.098,2203.402L1693.975,2191.026L1669.668,2186.369L1684.932,2172.232L1690.347,2145.639L1708.145,2151.272L1716.497,2118.125L1705.783,2113.873L1700.772,2133.859L1690.692,2131.611L1695.703,2108.727L1701.175,2079.074L1708.491,2068.133L1703.94,2052.535L1702.615,2034.499L1709.355,2033.984L1719.147,2008.149L1730.206,1982.557L1737.003,1958.699L1733.317,1934.732L1738.097,1921.544L1736.139,1901.775L1745.528,1882.25L1748.408,1851.296L1753.534,1818.068L1758.546,1782.294L1757.394,1756.107L1754.053,1733.575L1737.982,1724.368L1736.6,1717.814L1704.862,1701.755L1676.177,1684.261L1663.85,1674.376L1657.226,1661.161L1659.876,1656.557L1646.282,1635.569L1630.5,1606.051L1615.408,1574.177L1608.842,1566.892L1603.83,1555.112L1591.389,1544.659L1579.984,1538.186L1585.168,1531.037L1577.449,1515.79L1582.403,1504.579L1595.133,1494.478L1603.658,1482.508L1600.202,1475.521L1594.096,1482.968L1584.534,1475.954L1587.76,1471.432L1585.053,1456.916L1590.64,1454.506L1593.635,1444.54L1599.683,1434.223L1598.531,1427.696L1607.344,1424.284L1618.288,1417.893L1616.157,1412.937L1622.09,1411.745L1621.399,1403.729L1625.143,1397.934L1633.092,1396.851L1639.831,1386.804L1645.936,1378.409L1640.061,1374.59L1643.056,1365.302L1639.485,1350.678L1642.884,1346.48L1640.349,1332.94L1633.898,1324.409L1628.541,1319.806L1625.143,1311.167L1629.059,1306.888L1625.027,1305.805L1622.032,1300.524L1614.083,1296.056L1607.056,1297.085L1603.83,1302.636L1597.379,1306.671L1593.866,1307.213L1592.31,1310.544L1599.914,1319.237L1595.594,1321.295L1593.29,1323.651L1585.801,1324.463L1583.037,1314.904L1580.963,1317.639L1575.664,1316.691L1572.438,1310.246L1565.872,1309.19L1561.724,1307.321L1554.87,1307.348L1554.409,1310.815L1552.566,1308.405L1543.868,1304.857L1540.643,1301.499L1542.486,1298.71L1541.852,1295.189L1537.417,1291.344L1531.139,1288.202L1525.666,1286.144L1524.572,1281.459L1520.367,1278.615L1521.404,1283.273L1518.236,1287.092L1514.55,1282.651L1509.423,1281.08L1507.234,1277.83L1507.349,1272.983L1509.423,1267.919L1504.93,1265.671L1508.617,1262.584L1503.087,1257.547L1495.599,1251.101L1492.085,1245.685L1485.346,1240.675L1477.282,1233.444L1479.068,1230.953L1481.717,1233.363L1482.927,1232.253L1480.162,1227.243L1475.324,1225.835L1473.538,1229.626L1464.264,1229.382L1458.504,1227.839L1451.88,1224.67L1443.01,1223.668L1438.459,1220.229L1430.28,1217.44L1420.257,1217.142L1412.942,1213.973L1404.36,1207.366L1386.273,1190.142L1377.979,1184.943L1364.961,1180.772L1355.975,1181.937L1343.13,1187.976L1335.066,1189.546L1323.776,1185.322L1311.796,1182.289L1296.819,1174.95L1284.838,1172.702L1266.752,1165.255L1253.331,1157.618L1249.299,1153.339L1240.371,1152.391L1224.012,1147.327L1217.331,1140.015L1200.108,1130.943L1192.102,1120.842L1188.3,1113.043L1193.657,1111.499L1191.986,1106.922L1195.673,1102.779L1195.73,1097.254L1190.374,1090.051L1188.933,1083.687L1183.519,1075.617L1169.464,1059.72L1153.336,1047.209L1145.56,1037.243L1131.851,1030.717L1128.914,1026.79L1131.333,1016.905L1123.154,1013.195L1113.707,1005.396L1109.733,994.239L1101.15,992.939L1091.819,984.516L1084.331,976.717L1083.64,971.734L1075.057,959.656L1069.355,947.416L1069.643,941.268L1058.065,934.904L1052.708,935.608L1043.55,931.194L1041.015,937.694L1043.665,945.385L1045.22,957.408L1050.692,963.989L1062.558,975.011L1065.207,978.775L1067.627,979.913L1069.758,985.41L1072.58,985.194L1075.806,995.511L1080.702,999.573L1084.1,1005.26L1094.123,1013.385L1099.422,1028.279L1104.203,1035.293L1108.638,1042.795L1109.502,1051.217L1117.221,1051.758L1123.672,1059.016L1129.432,1066.166L1129.086,1069.036L1122.347,1074.913L1119.525,1074.831L1115.262,1065.109L1104.779,1055.983L1093.259,1048.238L1085.08,1044.176L1085.598,1032.477L1083.179,1023.811L1075.576,1018.855L1064.574,1011.706L1062.443,1013.764L1058.411,1009.593L1048.561,1005.721L1039.114,996.432L1040.266,995.241L1046.89,996.134L1052.823,990.149L1053.399,982.946L1041.073,971.518L1031.684,967.103L1025.809,957.111L1019.876,946.603L1012.445,933.821L1005.936,919.441L1003.287,911.263L992.919,902.055L985.431,900.132L983.703,895.556L974.717,894.743L968.957,890.437L954.096,888.84L950.064,886.267L948.105,877.493L932.553,861.407L919.248,839.173L919.824,835.463L912.739,830.182L900.355,816.777L898.166,803.724L889.641,794.977L893.155,781.734L892.579,768.004L887.452,755.737L893.731,740.653L897.59,711.622L894.71,690.174L889.641,676.471L885.033,669.051L886.934,665.936L910.089,671.353L918.614,686.464L922.531,682.239L919.996,669.105L914.582,655.998L912.393,655.971L881.462,640.237L869.999,633.331L841.026,626.696L832.098,612.533L834.402,602.729L813.896,595.905L811.131,583.015L791.778,571.397L791.432,563.164L782.619,557.125L768.507,552.034L764.014,538.087L743.393,525.143L734.753,510.031L719.374,509.002L693.972,508.596L675.194,503.992L642.131,487.392L626.809,484.359L598.816,478.645L576.639,479.999L545.189,472.66L526.181,465.835L508.383,469.22L511.724,480.351L502.853,481.38L484.363,484.711L470.251,490.1L452.568,493.512L450.264,484.088L457.464,468.381L474.456,463.452L470.078,459.444L449.688,468.354L438.744,479.024L415.703,490.398L427.396,498.17L412.305,509.652L395.082,516.341L379.069,521.243L375.095,528.311L350.096,536.571L345.085,544.099L326.365,550.924L315.363,549.705L300.445,554.173L284.201,559.617L270.896,564.952L243.42,569.528L240.943,566.847L258.454,559.373L274.064,554.444L291.113,545.67L310.986,543.883L318.877,537.302L341.053,527.742L344.624,524.52L356.432,518.887L359.197,506.755L367.319,497.303L348.887,502.151L343.703,499.389L335.063,505.211L324.637,497.087L320.317,502.828L314.326,494.866L298.313,501.257L288.521,501.257L287.139,491.725L290.019,485.848L279.708,480.161L258.915,483.221L245.378,475.72L234.434,471.874L234.377,462.829L222.05,456.005L228.271,446.797L241.289,437.861L246.991,429.655L259.951,428.491L270.953,431.036L283.856,423.318L295.433,424.699L307.645,419.744L304.649,412.432L295.721,409.561L307.529,403.387L297.737,403.576L280.745,407.043L275.849,410.59L263.235,407.043L240.655,408.857L217.212,405.012L210.473,398.566L190.255,389.277L212.719,382.588L248.431,374.762L261.564,374.762L259.375,382.751L293.129,382.155L280.169,372.244L260.47,366.123L249.122,358.134L233.743,351.31L211.797,346.246L220.725,337.878L249.122,337.363L269.283,330.051L273.084,322.279L289.443,314.669L305.053,312.828L335.351,305.733L350.096,306.816L374.692,298.286L398.942,301.644L410.519,308.847L417.604,305.76L444.619,306.708L443.697,310.391L468.177,313.126L484.478,311.528L518.175,316.565L548.933,318.082L561.26,320.167L582.572,317.567L606.822,322.36L624.217,324.608L654.055,328.454L679.284,336.145L695.93,337.634L709.985,330.945L729.338,325.962L753.128,327.912L777.089,320.898L803.298,316.89L814.299,323.525L826.223,319.788L829.794,312.259L840.853,313.965L867.925,328.318L889.18,317.459L891.369,329.591L911.011,326.991L917.059,322.306L936.47,323.227L960.893,329.943L998.333,335.82L1020.394,338.528L1036.062,337.499L1057.662,345.623L1035.14,353.558L1064.055,356.997L1107.256,355.101L1120.85,352.312L1137.899,361.899L1155.295,353.801L1138.994,347.004L1149.304,341.534L1168.773,340.803L1181.618,339.205L1194.521,343.023L1210.591,351.716L1228.447,350.443L1256.729,357.647L1281.555,355.101L1304.883,355.48L1303.04,345.542L1317.268,342.752L1342.093,348.169L1341.978,363.307L1352.174,350.552L1365.018,350.985L1372.276,334.899L1355.111,325.041L1336.449,318.569L1337.716,300.885L1356.666,289.268L1377.748,291.84L1393.934,298.908L1415.707,316.944L1401.48,324.798ZM1053.342,270.067L1045.335,277.569L1080.932,272.721L1103.166,280.791L1121.253,272.613L1135.883,277.867L1148.959,293.573L1157.023,286.966L1145.675,270.555L1159.73,268.226L1175.628,270.771L1193.542,277.244L1203.622,292.815L1208.575,304.108L1235.417,312.043L1264.333,319.598L1262.547,326.639L1236.281,327.939L1246.534,334.087L1241.12,339.963L1212.147,337.445L1184.613,333.112L1166.066,334.087L1135.999,339.53L1088.536,342.319L1066.993,343.429L1058.295,335.874L1036.465,331.514L1022.295,333.301L1002.538,320.627L1013.194,318.948L1037.905,316.213L1060.484,316.917L1081.336,314.128L1050.404,310.391L1016.189,311.664L993.495,311.339L985.085,305.462L1022.18,299.044L997.527,299.288L969.59,295.063L983.011,283.066L994.128,276.702L1036.983,266.98ZM1207.999,265.274L1193.945,275.835L1168.946,264.651L1174.418,262.403L1195.846,261.753ZM1658.551,270.365L1659.991,274.779L1642.941,274.319L1625.719,273.967L1608.208,276.133L1603.6,275.158L1585.974,266.682L1586.665,260.914L1594.326,259.858L1630.96,261.564ZM1495.023,269.471L1507.637,279.464L1522.383,266.547L1562.934,259.993L1590.41,276.54L1587.99,287.02L1619.671,282.362L1634.82,275.998L1670.302,284.095L1692.363,291.732L1694.436,298.719L1724.1,295.09L1740.805,305.272L1779.397,311.609L1793.336,318.055L1808.485,333.03L1779.109,340.478L1816.78,350.931L1842.182,354.451L1865.222,369.156L1890.393,370.212L1885.382,381.424L1857.331,400.029L1837.631,393.177L1812.46,377.795L1791.781,379.799L1789.765,388.953L1806.584,398.268L1828.3,405.634L1834.866,409.886L1845.292,425.701L1839.762,437.211L1819.602,432.878L1779.455,420.069L1802.092,433.853L1818.738,443.521L1821.33,449.099L1777.957,442.708L1743.627,433.419L1724.216,425.647L1729.803,421.125L1705.956,412.892L1682.628,405.147L1682.916,409.778L1636.663,412.323L1623.127,406.826L1633.668,395.046L1663.735,394.775L1696.625,392.717L1691.326,387.003L1696.855,379.041L1717.592,363.442L1713.156,356.374L1706.993,350.877L1682.513,343.132L1650.084,337.688L1660.337,333.626L1643.402,323.687L1629.29,322.767L1616.675,317.323L1608.093,322.063L1579.12,324.121L1520.886,320.546L1487.016,315.834L1461.096,313.424L1447.79,307.818L1464.495,300.506L1441.8,300.452L1436.731,284.231L1449,269.932L1465.474,263.405L1506.773,259.126ZM1274.298,258.504L1293.363,261.862L1321.933,259.831L1326.08,264.489L1311.162,272.152L1335.354,279.031L1332.474,293.438L1306.266,299.64L1290.829,298.286L1279.77,292.192L1240.025,279.843L1240.313,274.725L1272.973,276.702L1255.347,266.249ZM5177.658,268.605L5153.408,268.713L5120.634,266.926L5117.811,266.086L5132.96,259.749L5153.005,258.287L5175.7,264.407ZM1388.865,275.646L1371.7,287.616L1353.441,287.02L1343.476,272.965L1343.706,265.003L1352.058,258.206L1367.956,253.846L1401.307,254.387L1431.835,258.287L1407.931,272.532ZM952.656,297.609L910.55,305.57L902.083,298.556L865.161,290.107L870.518,284.88L883.074,271.638L896.956,261.13L881.289,251.327L935.376,248.809L958.243,252.14L999.082,253.033L1014.634,257.664L1031.799,264.407L1011.697,268.442L972.471,279.681L952.656,290.892ZM5291.707,238.653L5273.218,244.99L5247.643,243.555L5217.921,237.245L5221.723,232.046L5251.56,234.456ZM1382.183,240.332L1373.486,246.534L1350.273,245.342L1330.861,241.145L1339.386,233.941L1362.369,229.635L1376.366,235.268ZM5201.39,230.989L5188.775,242.878L5129.85,242.445L5103.296,246.209L5071.616,235.81L5080.198,224.815L5101.28,221.809L5143.559,222.513ZM1304.019,212.493L1316.231,219.886L1316.749,228.092L1309.434,240.007L1283.053,241.632L1265.888,239.087L1266.176,229.744L1239.968,230.989L1238.931,218.613L1256.153,219.101L1280.288,213.658L1302.752,214.578ZM1148.613,220.78L1154.892,226.467L1169.119,223.786L1185.881,224.49L1188.703,232.316L1178.969,239.926L1124.824,242.39L1084.446,249.323L1060.081,249.702L1058.065,244.476L1091.301,237.408L1019.012,239.303L996.605,236.433L1018.436,220.807L1033.527,216.339L1078.571,221.728L1106.968,231.206L1134.904,232.425L1112.037,217.124L1126.725,211.302L1143.199,213.143ZM3800.544,308.468L3791.097,309.876L3738.853,307.791L3734.591,300.696L3705.618,296.417L3703.314,287.751L3719.672,284.339L3719.096,275.592L3750.834,261.97L3736.146,259.993L3774.451,245.965L3770.131,238.707L3805.9,230.258L3858.72,219.967L3912.001,216.989L3939.361,211.031L3970.523,208.973L3981.64,215.282L3970.869,220.265L3914.19,228.2L3865.344,235.837L3815.635,251.056L3791.788,266.682L3766.732,282.064L3769.958,295.361ZM1365.076,206.427L1382.817,211.572L1414.325,211.545L1428.149,216.799L1424.462,222.811L1442.837,226.44L1453.032,230.231L1474.575,230.935L1497.961,232.289L1523.362,228.823L1555.964,227.442L1581.942,228.579L1599.107,234.618L1602.678,241.226L1592.656,245.478L1568.809,248.917L1548.361,246.967L1502.453,249.432L1469.621,249.729L1443.758,247.752L1401.249,242.607L1395.72,233.806L1393.761,225.871L1377.691,218.884L1344.628,216.934L1326.08,211.979L1332.071,205.425ZM1020.797,197.68L1018.609,209.975L1006.282,215.526L991.364,216.312L961.584,223.136L936.009,225.6L914.294,222.134L941.481,210.164L974.314,199.792L998.852,200.036ZM1378.555,199.684L1371.297,200.144L1341.287,199.115L1337.025,194.647L1369.223,194.891L1380.455,197.842ZM1116.99,196.84L1087.153,201.444L1063.479,196.272L1076.382,191.18L1099.768,189.556L1122.347,192.047ZM3275.572,194.349L3239.86,200.875L3211.635,197.165L3222.637,193.049L3213.018,187.931L3246.138,184.708L3252.474,190.72ZM1125.4,182.379L1105.873,185.493L1079.32,185.466L1079.608,183.192L1096.024,178.398L1104.606,179.129ZM1346.701,191.099L1323.028,194.403L1310.01,190.666L1303.155,184.681L1301.888,178.046L1322.624,178.696L1331.956,179.752L1351.079,185.304ZM1279.021,186.793L1285.242,193.482L1259.149,191.695L1232.825,186.495L1197.17,185.927L1212.607,181.16L1193.311,177.315L1192.102,171.168L1223.551,173.361L1266.809,179.184ZM4561.217,187.091L4471.014,193.266L4500.218,172.251L4513.408,170.464L4525.389,171.493L4565.94,180.592ZM3172.006,164.777L3224.711,176.692L3184.448,183.002L3175.52,194.782L3161.523,197.788L3153.92,211.058L3134.623,211.681L3100.178,201.904L3114.694,196.217L3090.732,191.614L3059.57,178.1L3047.128,165.562L3090.732,159.821L3099.487,165.426L3122.297,165.21L3128.345,159.739L3151.846,159.198ZM3287.15,153.484L3318.542,159.09L3294.811,167.701L3248.384,169.597L3201.21,166.943L3198.33,162.529L3175.405,162.231L3157.894,154.892L3207.315,150.424L3230.528,154.269L3246.714,149.476ZM3698.187,151.236L3676.702,153.348L3662.302,154.567L3660.056,157.194L3641.393,159.848L3624.055,156.056L3633.156,151.046L3597.559,150.559L3628.779,147.661L3653.086,147.445L3656.369,151.778L3665.528,147.932L3680.619,145.305L3704.351,148.799ZM4479.021,177.911L4444.115,179.888L4399.59,175.284L4372.978,169.164L4360.709,157.708L4338.879,154.54L4380.466,143.599L4415.027,139.997L4446.131,148.04L4482.995,163.531ZM1487.708,165.454L1506.946,170.599L1485,175.365L1455.451,187.416L1427.112,188.554L1393.992,186.495L1376.769,179.996L1376.999,174.174L1389.671,169.922L1360.41,170.03L1342.785,164.722L1332.647,157.465L1343.764,150.369L1354.823,145.495L1371.239,144.357L1364.212,140.702L1401.422,139.889L1421.87,148.42L1448.827,151.859L1475.036,154.892ZM1784.005,110.29L1826.745,111.562L1861.132,113.594L1890.393,117.954L1889.702,122.205L1850.649,129.165L1811.941,132.388L1797.484,135.989L1832.332,135.908L1794.546,145.603L1768.51,150.126L1741.093,163.206L1708.087,165.86L1697.892,169.109L1649.45,170.843L1671.511,172.847L1660.452,175.69L1673.7,183.598L1658.493,189.068L1633.783,193.591L1626.179,199.873L1603.83,204.64L1606.077,208.268L1633.437,207.646L1633.783,211.545L1591.043,221.159L1549.225,216.745L1502.223,219.209L1478.376,217.286L1448.136,216.447L1446.12,208.756L1475.727,205.154L1467.835,193.591L1477.628,192.48L1520.367,199.386L1498.537,189.122L1472.616,186.062L1485.576,179.861L1513.916,176.042L1518.466,170.464L1495.887,164.208L1489.09,155.975L1532.809,156.679L1545.481,158.412L1570.422,152.563L1534.422,150.721L1478.434,151.751L1450.152,146.307L1436.789,139.835L1418.126,135.15L1414.613,129.68L1438.402,126.647L1457.064,126.132L1488.456,123.532L1512.015,117.574L1531.83,118.387L1549.11,122.882L1561.264,114.243L1582.403,111.671L1611.088,109.911L1659.991,109.261L1668.516,110.967L1714.712,108.259L1749.329,109.288ZM2446.412,103.682L2546.464,116.383L2516.915,122.53L2455.743,123.234L2369.572,124.805L2377.637,127.649L2434.316,125.888L2482.47,131.413L2513.574,126.511L2526.88,132.252L2509.311,141.568L2550.035,135.61L2627.681,129.409L2675.662,132.496L2684.648,139.348L2619.444,150.721L2610.401,154.405L2559.251,157.167L2596.288,157.925L2577.626,169.597L2564.723,179.969L2565.242,197.788L2584.423,208.241L2559.424,208.891L2533.101,213.955L2562.65,222.432L2566.394,236.026L2549.286,237.516L2570.023,251.273L2534.483,252.41L2553.03,258.937L2547.789,264.57L2525.267,267.034L2502.918,267.088L2522.963,277.921L2523.193,285.043L2491.571,278.435L2483.334,282.714L2504.934,286.722L2525.9,296.498L2531.949,309.389L2503.436,312.476L2491.11,306.301L2471.295,297.094L2476.767,307.953L2458.22,316.376L2500.383,317.053L2522.444,317.919L2479.532,331.866L2436.044,344.486L2389.214,350.01L2371.589,350.064L2355,356.239L2332.766,373.137L2298.378,384.349L2287.319,384.999L2266.007,388.925L2243.024,392.663L2229.315,402.547L2229.085,413.786L2220.963,424.293L2194.87,437.075L2201.321,449.587L2194.121,462.802L2185.942,478.428L2163.42,479.403L2139.804,466.35L2107.778,466.269L2092.283,457.494L2081.57,441.869L2053.864,421.964L2045.742,411.538L2043.553,397.185L2021.435,382.399L2027.195,370.619L2016.481,364.986L2032.321,346.273L2056.398,340.315L2062.734,333.626L2066.075,321.142L2047.758,326.802L2039.06,329.185L2024.718,331.46L2005.076,326.233L2003.982,315.374L2010.26,306.87L2025.121,306.626L2057.781,310.878L2030.248,300.723L2015.905,295.252L2000.007,297.5L1986.644,293.519L2004.5,278.625L1994.766,272.667L1982.093,261.591L1962.797,244.638L1942.464,238.41L1942.637,231.721L1899.725,222.351L1865.74,221.186L1822.943,221.836L1783.947,223.028L1765.342,217.936L1737.579,207.862L1779.57,202.825L1811.769,201.986L1743.339,197.815L1707.223,191.289L1709.47,185.087L1770.008,177.369L1828.645,169.678L1834.809,163.883L1791.608,158.115L1805.605,151.751L1860.959,140.566L1884.23,138.86L1877.606,131.684L1915.507,127.459L1964.698,124.94L2013.831,124.805L2031.284,129.788L2073.736,120.987L2111.925,126.972L2134.389,128.217L2167.625,133.417L2129.608,124.805L2131.797,117.954L2185.481,108.394L2241.642,109.125L2262.032,103.222L2318.596,101.678Z"/></svg>